<svg width="32" height="32" viewBox="0 0 32 32" fill="none" xmlns="http://www.w3.org/2000/svg">
<circle cx="16" cy="16" r="16" fill="#262626"/>
<path d="M8.9375 16.4819V22.1069C8.9375 22.6244 9.35844 23.0444 9.875 23.0444H14.5625V16.4819H8.9375Z" fill="white"/>
<path d="M22.0625 12.732H19.0963C19.3091 12.5866 19.4919 12.4423 19.6194 12.3129C20.3759 11.5526 20.3759 10.3151 19.6194 9.55477C18.8844 8.81414 17.6038 8.81602 16.8697 9.55477C16.4628 9.96258 15.3847 11.6229 15.5338 12.732H15.4663C15.6144 11.6229 14.5363 9.96258 14.1303 9.55477C13.3953 8.81602 12.1147 8.81602 11.3806 9.55477C10.625 10.3151 10.625 11.5526 11.3797 12.3129C11.5081 12.4423 11.6909 12.5866 11.9037 12.732H8.9375C8.42094 12.732 8 13.1529 8 13.6695V15.0757C8 15.3345 8.21 15.5445 8.46875 15.5445H14.5625V13.6695H16.4375V15.5445H22.5312C22.79 15.5445 23 15.3345 23 15.0757V13.6695C23 13.1529 22.58 12.732 22.0625 12.732ZM14.5072 12.701C14.5072 12.701 14.4678 12.732 14.3338 12.732C13.6859 12.732 12.4494 12.0588 12.0453 11.652C11.6525 11.2563 11.6525 10.6113 12.0453 10.2157C12.2356 10.0245 12.4878 9.91945 12.7559 9.91945C13.0231 9.91945 13.2753 10.0245 13.4656 10.2157C14.0975 10.8513 14.7256 12.4751 14.5072 12.701ZM16.6653 12.732C16.5322 12.732 16.4928 12.702 16.4928 12.701C16.2744 12.4751 16.9025 10.8513 17.5344 10.2157C17.9122 9.83414 18.5731 9.83227 18.9547 10.2157C19.3484 10.6113 19.3484 11.2563 18.9547 11.652C18.5506 12.0588 17.3141 12.732 16.6653 12.732Z" fill="white"/>
<path d="M16.4375 16.4819V23.0444H21.125C21.6425 23.0444 22.0625 22.6244 22.0625 22.1069V16.4819H16.4375Z" fill="white"/>
</svg>
