<svg width="390" height="50" viewBox="0 0 390 50" fill="none" xmlns="http://www.w3.org/2000/svg">
<path d="M227.5 6C227.5 2.68629 230.186 0 233.5 0H373.569C375.824 0 377.889 1.26435 378.914 3.27295L388.609 22.273C389.483 23.9859 389.483 26.0141 388.609 27.727L378.914 46.727C377.889 48.7357 375.824 50 373.569 50H233.5C230.186 50 227.5 47.3137 227.5 44V6Z" fill="#737373"/>
<path d="M104 6C104 2.68629 106.686 0 110 0L243.569 0C245.824 0 247.889 1.26435 248.914 3.27295L258.609 22.273C259.483 23.9859 259.483 26.0141 258.609 27.727L248.914 46.727C247.889 48.7357 245.824 50 243.569 50H110C106.686 50 104 47.3137 104 44V6Z" fill="#262626"/>
<path d="M0 6C0 2.68629 2.68629 0 6 0H113.569C115.824 0 117.889 1.26435 118.914 3.27295L128.609 22.273C129.483 23.9859 129.483 26.0141 128.609 27.727L118.914 46.727C117.889 48.7357 115.824 50 113.569 50H6C2.68629 50 0 47.3137 0 44V6Z" fill="#CA0100"/>
<path d="M291.122 11.0469V21H289.071V12.6533H285.072V21H283.021V11.0469H291.122ZM292.476 17.377V17.2334C292.476 16.6911 292.553 16.1921 292.708 15.7363C292.863 15.276 293.089 14.8773 293.385 14.54C293.681 14.2028 294.046 13.9408 294.479 13.7539C294.911 13.5625 295.408 13.4668 295.969 13.4668C296.529 13.4668 297.028 13.5625 297.466 13.7539C297.903 13.9408 298.27 14.2028 298.566 14.54C298.867 14.8773 299.095 15.276 299.25 15.7363C299.405 16.1921 299.482 16.6911 299.482 17.2334V17.377C299.482 17.9147 299.405 18.4137 299.25 18.874C299.095 19.3298 298.867 19.7285 298.566 20.0703C298.27 20.4076 297.906 20.6696 297.473 20.8564C297.04 21.0433 296.543 21.1367 295.982 21.1367C295.422 21.1367 294.923 21.0433 294.485 20.8564C294.052 20.6696 293.686 20.4076 293.385 20.0703C293.089 19.7285 292.863 19.3298 292.708 18.874C292.553 18.4137 292.476 17.9147 292.476 17.377ZM294.444 17.2334V17.377C294.444 17.6868 294.472 17.9762 294.526 18.2451C294.581 18.514 294.668 18.751 294.786 18.9561C294.909 19.1566 295.069 19.3138 295.265 19.4277C295.461 19.5417 295.7 19.5986 295.982 19.5986C296.256 19.5986 296.491 19.5417 296.687 19.4277C296.882 19.3138 297.04 19.1566 297.158 18.9561C297.277 18.751 297.363 18.514 297.418 18.2451C297.477 17.9762 297.507 17.6868 297.507 17.377V17.2334C297.507 16.9326 297.477 16.6501 297.418 16.3857C297.363 16.1169 297.274 15.8799 297.151 15.6748C297.033 15.4652 296.876 15.3011 296.68 15.1826C296.484 15.0641 296.247 15.0049 295.969 15.0049C295.691 15.0049 295.454 15.0641 295.258 15.1826C295.066 15.3011 294.909 15.4652 294.786 15.6748C294.668 15.8799 294.581 16.1169 294.526 16.3857C294.472 16.6501 294.444 16.9326 294.444 17.2334ZM301.533 13.6035H303.502L303.44 16.0781C303.422 16.8711 303.331 17.5524 303.167 18.1221C303.003 18.6917 302.784 19.1702 302.511 19.5576C302.237 19.945 301.925 20.2549 301.574 20.4873C301.228 20.7152 300.863 20.8861 300.48 21H300.111L300.091 19.4824L300.296 19.4619C300.528 19.2204 300.72 18.9857 300.87 18.7578C301.021 18.5254 301.137 18.2816 301.219 18.0264C301.301 17.7712 301.36 17.4863 301.396 17.1719C301.438 16.8574 301.463 16.4928 301.472 16.0781L301.533 13.6035ZM302.066 13.6035H306.968V21H305.006V15.1826H302.066V13.6035ZM299.66 19.4619H308.027V23.2217H306.059V21H301.677V23.2217H299.66V19.4619ZM310.919 15.0254V23.8438H308.95V13.6035H310.775L310.919 15.0254ZM315.602 17.2197V17.3633C315.602 17.901 315.538 18.4001 315.41 18.8604C315.287 19.3206 315.105 19.7217 314.863 20.0635C314.622 20.4007 314.321 20.665 313.961 20.8564C313.605 21.0433 313.195 21.1367 312.73 21.1367C312.279 21.1367 311.887 21.0456 311.555 20.8633C311.222 20.681 310.942 20.4258 310.714 20.0977C310.491 19.765 310.311 19.3799 310.174 18.9424C310.037 18.5049 309.932 18.0355 309.859 17.5342V17.1582C309.932 16.6204 310.037 16.1283 310.174 15.6816C310.311 15.2305 310.491 14.8408 310.714 14.5127C310.942 14.18 311.22 13.9225 311.548 13.7402C311.881 13.5579 312.27 13.4668 312.717 13.4668C313.186 13.4668 313.599 13.5557 313.954 13.7334C314.314 13.9111 314.615 14.1663 314.856 14.499C315.103 14.8317 315.287 15.2282 315.41 15.6885C315.538 16.1488 315.602 16.6592 315.602 17.2197ZM313.626 17.3633V17.2197C313.626 16.9053 313.599 16.6159 313.544 16.3516C313.494 16.0827 313.412 15.848 313.298 15.6475C313.188 15.4469 313.043 15.292 312.86 15.1826C312.683 15.0687 312.466 15.0117 312.211 15.0117C311.942 15.0117 311.712 15.055 311.521 15.1416C311.334 15.2282 311.181 15.3535 311.062 15.5176C310.944 15.6816 310.855 15.8776 310.796 16.1055C310.737 16.3333 310.7 16.5908 310.687 16.8779V17.8281C310.709 18.1654 310.773 18.4684 310.878 18.7373C310.983 19.0016 311.145 19.2113 311.363 19.3662C311.582 19.5212 311.869 19.5986 312.225 19.5986C312.484 19.5986 312.703 19.5417 312.881 19.4277C313.059 19.3092 313.202 19.1475 313.312 18.9424C313.425 18.7373 313.505 18.5003 313.551 18.2314C313.601 17.9626 313.626 17.6732 313.626 17.3633ZM316.511 17.377V17.2334C316.511 16.6911 316.588 16.1921 316.743 15.7363C316.898 15.276 317.124 14.8773 317.42 14.54C317.716 14.2028 318.081 13.9408 318.514 13.7539C318.947 13.5625 319.443 13.4668 320.004 13.4668C320.564 13.4668 321.063 13.5625 321.501 13.7539C321.938 13.9408 322.305 14.2028 322.602 14.54C322.902 14.8773 323.13 15.276 323.285 15.7363C323.44 16.1921 323.518 16.6911 323.518 17.2334V17.377C323.518 17.9147 323.44 18.4137 323.285 18.874C323.13 19.3298 322.902 19.7285 322.602 20.0703C322.305 20.4076 321.941 20.6696 321.508 20.8564C321.075 21.0433 320.578 21.1367 320.018 21.1367C319.457 21.1367 318.958 21.0433 318.521 20.8564C318.088 20.6696 317.721 20.4076 317.42 20.0703C317.124 19.7285 316.898 19.3298 316.743 18.874C316.588 18.4137 316.511 17.9147 316.511 17.377ZM318.479 17.2334V17.377C318.479 17.6868 318.507 17.9762 318.562 18.2451C318.616 18.514 318.703 18.751 318.821 18.9561C318.944 19.1566 319.104 19.3138 319.3 19.4277C319.496 19.5417 319.735 19.5986 320.018 19.5986C320.291 19.5986 320.526 19.5417 320.722 19.4277C320.918 19.3138 321.075 19.1566 321.193 18.9561C321.312 18.751 321.398 18.514 321.453 18.2451C321.512 17.9762 321.542 17.6868 321.542 17.377V17.2334C321.542 16.9326 321.512 16.6501 321.453 16.3857C321.398 16.1169 321.31 15.8799 321.187 15.6748C321.068 15.4652 320.911 15.3011 320.715 15.1826C320.519 15.0641 320.282 15.0049 320.004 15.0049C319.726 15.0049 319.489 15.0641 319.293 15.1826C319.102 15.3011 318.944 15.4652 318.821 15.6748C318.703 15.8799 318.616 16.1169 318.562 16.3857C318.507 16.6501 318.479 16.9326 318.479 17.2334ZM329.26 10.3496H330.853C330.853 10.7188 330.807 11.0355 330.716 11.2998C330.625 11.5596 330.479 11.7829 330.278 11.9697C330.078 12.152 329.809 12.307 329.472 12.4346C329.134 12.5622 328.717 12.6715 328.221 12.7627C327.838 12.8402 327.505 12.9678 327.223 13.1455C326.945 13.3232 326.715 13.5671 326.532 13.877C326.354 14.1823 326.227 14.5697 326.149 15.0391C326.072 15.5039 326.045 16.0645 326.067 16.7207V17.0488L324.536 17.2607V16.9326C324.541 16.0394 324.62 15.2624 324.775 14.6016C324.935 13.9408 325.16 13.3848 325.452 12.9336C325.744 12.4779 326.095 12.1156 326.505 11.8467C326.915 11.5732 327.371 11.3818 327.872 11.2725C328.209 11.1995 328.478 11.1289 328.679 11.0605C328.884 10.9876 329.032 10.8965 329.123 10.7871C329.214 10.6777 329.26 10.5319 329.26 10.3496ZM328.398 14.0205C328.9 14.0205 329.344 14.1071 329.731 14.2803C330.119 14.4489 330.445 14.6882 330.709 14.998C330.973 15.3079 331.174 15.6725 331.311 16.0918C331.447 16.5111 331.516 16.9691 331.516 17.4658V17.6094C331.516 18.1152 331.438 18.5846 331.283 19.0176C331.133 19.446 330.91 19.8197 330.613 20.1387C330.317 20.4577 329.952 20.7061 329.52 20.8838C329.087 21.057 328.592 21.1436 328.036 21.1436C327.476 21.1436 326.977 21.0501 326.539 20.8633C326.106 20.6719 325.739 20.4053 325.438 20.0635C325.142 19.7171 324.917 19.3138 324.762 18.8535C324.611 18.3887 324.536 17.8828 324.536 17.3359V17.1855C324.536 17.1081 324.57 17.0329 324.639 16.96C324.712 16.8825 324.796 16.7959 324.892 16.7002C324.992 16.6045 325.081 16.4837 325.158 16.3379C325.432 15.832 325.73 15.4082 326.054 15.0664C326.377 14.7201 326.73 14.4603 327.113 14.2871C327.501 14.1094 327.929 14.0205 328.398 14.0205ZM328.022 15.5586C327.653 15.5586 327.357 15.6475 327.134 15.8252C326.91 15.9984 326.749 16.2308 326.648 16.5225C326.553 16.8096 326.505 17.124 326.505 17.4658V17.6094C326.505 17.8874 326.532 18.1471 326.587 18.3887C326.642 18.6257 326.728 18.8376 326.847 19.0244C326.965 19.2067 327.122 19.3503 327.318 19.4551C327.514 19.5553 327.754 19.6055 328.036 19.6055C328.31 19.6055 328.542 19.5553 328.733 19.4551C328.929 19.3503 329.087 19.2067 329.205 19.0244C329.324 18.8376 329.41 18.6257 329.465 18.3887C329.52 18.1471 329.547 17.8874 329.547 17.6094V17.4658C329.547 17.2061 329.52 16.9622 329.465 16.7344C329.41 16.502 329.324 16.2992 329.205 16.126C329.087 15.9482 328.929 15.8092 328.733 15.709C328.537 15.6087 328.3 15.5586 328.022 15.5586ZM337.654 16.5908V18.1221H333.895V16.5908H337.654ZM334.551 13.6035V21H332.582V13.6035H334.551ZM338.987 13.6035V21H337.012V13.6035H338.987ZM343.923 21.1367C343.349 21.1367 342.834 21.0456 342.378 20.8633C341.922 20.6764 341.535 20.4189 341.216 20.0908C340.901 19.7627 340.66 19.3822 340.491 18.9492C340.323 18.5117 340.238 18.0469 340.238 17.5547V17.2812C340.238 16.7207 340.318 16.208 340.478 15.7432C340.637 15.2783 340.865 14.875 341.161 14.5332C341.462 14.1914 341.826 13.9294 342.255 13.7471C342.683 13.5602 343.166 13.4668 343.704 13.4668C344.228 13.4668 344.693 13.5534 345.099 13.7266C345.504 13.8997 345.844 14.1458 346.117 14.4648C346.395 14.7839 346.605 15.1667 346.746 15.6133C346.887 16.0553 346.958 16.5475 346.958 17.0898V17.9102H341.079V16.5977H345.023V16.4473C345.023 16.1738 344.973 15.93 344.873 15.7158C344.777 15.4971 344.632 15.3239 344.436 15.1963C344.24 15.0687 343.989 15.0049 343.684 15.0049C343.424 15.0049 343.201 15.0618 343.014 15.1758C342.827 15.2897 342.674 15.4492 342.556 15.6543C342.442 15.8594 342.355 16.1009 342.296 16.3789C342.241 16.6523 342.214 16.9531 342.214 17.2812V17.5547C342.214 17.8509 342.255 18.1243 342.337 18.375C342.424 18.6257 342.544 18.8421 342.699 19.0244C342.859 19.2067 343.05 19.348 343.273 19.4482C343.501 19.5485 343.759 19.5986 344.046 19.5986C344.401 19.5986 344.732 19.5303 345.037 19.3936C345.347 19.2523 345.614 19.0404 345.837 18.7578L346.794 19.7969C346.639 20.0202 346.427 20.2344 346.158 20.4395C345.894 20.6445 345.575 20.8132 345.201 20.9453C344.827 21.0729 344.401 21.1367 343.923 21.1367ZM351.483 21.1367C350.909 21.1367 350.394 21.0456 349.938 20.8633C349.483 20.6764 349.095 20.4189 348.776 20.0908C348.462 19.7627 348.22 19.3822 348.052 18.9492C347.883 18.5117 347.799 18.0469 347.799 17.5547V17.2812C347.799 16.7207 347.879 16.208 348.038 15.7432C348.198 15.2783 348.425 14.875 348.722 14.5332C349.022 14.1914 349.387 13.9294 349.815 13.7471C350.244 13.5602 350.727 13.4668 351.265 13.4668C351.789 13.4668 352.254 13.5534 352.659 13.7266C353.065 13.8997 353.404 14.1458 353.678 14.4648C353.956 14.7839 354.165 15.1667 354.307 15.6133C354.448 16.0553 354.519 16.5475 354.519 17.0898V17.9102H348.64V16.5977H352.584V16.4473C352.584 16.1738 352.534 15.93 352.434 15.7158C352.338 15.4971 352.192 15.3239 351.996 15.1963C351.8 15.0687 351.549 15.0049 351.244 15.0049C350.984 15.0049 350.761 15.0618 350.574 15.1758C350.387 15.2897 350.235 15.4492 350.116 15.6543C350.002 15.8594 349.916 16.1009 349.856 16.3789C349.802 16.6523 349.774 16.9531 349.774 17.2812V17.5547C349.774 17.8509 349.815 18.1243 349.897 18.375C349.984 18.6257 350.105 18.8421 350.26 19.0244C350.419 19.2067 350.611 19.348 350.834 19.4482C351.062 19.5485 351.319 19.5986 351.606 19.5986C351.962 19.5986 352.292 19.5303 352.598 19.3936C352.908 19.2523 353.174 19.0404 353.397 18.7578L354.354 19.7969C354.2 20.0202 353.988 20.2344 353.719 20.4395C353.454 20.6445 353.135 20.8132 352.762 20.9453C352.388 21.0729 351.962 21.1367 351.483 21.1367ZM288.101 33.377V33.2334C288.101 32.6911 288.178 32.1921 288.333 31.7363C288.488 31.276 288.714 30.8773 289.01 30.54C289.306 30.2028 289.671 29.9408 290.104 29.7539C290.536 29.5625 291.033 29.4668 291.594 29.4668C292.154 29.4668 292.653 29.5625 293.091 29.7539C293.528 29.9408 293.895 30.2028 294.191 30.54C294.492 30.8773 294.72 31.276 294.875 31.7363C295.03 32.1921 295.107 32.6911 295.107 33.2334V33.377C295.107 33.9147 295.03 34.4137 294.875 34.874C294.72 35.3298 294.492 35.7285 294.191 36.0703C293.895 36.4076 293.531 36.6696 293.098 36.8564C292.665 37.0433 292.168 37.1367 291.607 37.1367C291.047 37.1367 290.548 37.0433 290.11 36.8564C289.677 36.6696 289.311 36.4076 289.01 36.0703C288.714 35.7285 288.488 35.3298 288.333 34.874C288.178 34.4137 288.101 33.9147 288.101 33.377ZM290.069 33.2334V33.377C290.069 33.6868 290.097 33.9762 290.151 34.2451C290.206 34.514 290.293 34.751 290.411 34.9561C290.534 35.1566 290.694 35.3138 290.89 35.4277C291.086 35.5417 291.325 35.5986 291.607 35.5986C291.881 35.5986 292.116 35.5417 292.312 35.4277C292.507 35.3138 292.665 35.1566 292.783 34.9561C292.902 34.751 292.988 34.514 293.043 34.2451C293.102 33.9762 293.132 33.6868 293.132 33.377V33.2334C293.132 32.9326 293.102 32.6501 293.043 32.3857C292.988 32.1169 292.899 31.8799 292.776 31.6748C292.658 31.4652 292.501 31.3011 292.305 31.1826C292.109 31.0641 291.872 31.0049 291.594 31.0049C291.316 31.0049 291.079 31.0641 290.883 31.1826C290.691 31.3011 290.534 31.4652 290.411 31.6748C290.293 31.8799 290.206 32.1169 290.151 32.3857C290.097 32.6501 290.069 32.9326 290.069 33.2334ZM304.302 34.7373L306.243 29.6035H307.85L304.965 37H303.639L300.768 29.6035H302.374L304.302 34.7373ZM301.902 29.6035V37H299.934V29.6035H301.902ZM306.749 37V29.6035H308.718V37H306.749ZM310.126 33.377V33.2334C310.126 32.6911 310.203 32.1921 310.358 31.7363C310.513 31.276 310.739 30.8773 311.035 30.54C311.331 30.2028 311.696 29.9408 312.129 29.7539C312.562 29.5625 313.059 29.4668 313.619 29.4668C314.18 29.4668 314.679 29.5625 315.116 29.7539C315.554 29.9408 315.921 30.2028 316.217 30.54C316.518 30.8773 316.745 31.276 316.9 31.7363C317.055 32.1921 317.133 32.6911 317.133 33.2334V33.377C317.133 33.9147 317.055 34.4137 316.9 34.874C316.745 35.3298 316.518 35.7285 316.217 36.0703C315.921 36.4076 315.556 36.6696 315.123 36.8564C314.69 37.0433 314.193 37.1367 313.633 37.1367C313.072 37.1367 312.573 37.0433 312.136 36.8564C311.703 36.6696 311.336 36.4076 311.035 36.0703C310.739 35.7285 310.513 35.3298 310.358 34.874C310.203 34.4137 310.126 33.9147 310.126 33.377ZM312.095 33.2334V33.377C312.095 33.6868 312.122 33.9762 312.177 34.2451C312.231 34.514 312.318 34.751 312.437 34.9561C312.56 35.1566 312.719 35.3138 312.915 35.4277C313.111 35.5417 313.35 35.5986 313.633 35.5986C313.906 35.5986 314.141 35.5417 314.337 35.4277C314.533 35.3138 314.69 35.1566 314.809 34.9561C314.927 34.751 315.014 34.514 315.068 34.2451C315.128 33.9762 315.157 33.6868 315.157 33.377V33.2334C315.157 32.9326 315.128 32.6501 315.068 32.3857C315.014 32.1169 314.925 31.8799 314.802 31.6748C314.683 31.4652 314.526 31.3011 314.33 31.1826C314.134 31.0641 313.897 31.0049 313.619 31.0049C313.341 31.0049 313.104 31.0641 312.908 31.1826C312.717 31.3011 312.56 31.4652 312.437 31.6748C312.318 31.8799 312.231 32.1169 312.177 32.3857C312.122 32.6501 312.095 32.9326 312.095 33.2334ZM319.184 29.6035H321.152L321.091 32.0781C321.073 32.8711 320.981 33.5524 320.817 34.1221C320.653 34.6917 320.435 35.1702 320.161 35.5576C319.888 35.945 319.576 36.2549 319.225 36.4873C318.878 36.7152 318.514 36.8861 318.131 37H317.762L317.741 35.4824L317.946 35.4619C318.179 35.2204 318.37 34.9857 318.521 34.7578C318.671 34.5254 318.787 34.2816 318.869 34.0264C318.951 33.7712 319.01 33.4863 319.047 33.1719C319.088 32.8574 319.113 32.4928 319.122 32.0781L319.184 29.6035ZM319.717 29.6035H324.618V37H322.656V31.1826H319.717V29.6035ZM317.311 35.4619H325.678V39.2217H323.709V37H319.327V39.2217H317.311V35.4619ZM330.087 37.1367C329.513 37.1367 328.998 37.0456 328.542 36.8633C328.086 36.6764 327.699 36.4189 327.38 36.0908C327.065 35.7627 326.824 35.3822 326.655 34.9492C326.487 34.5117 326.402 34.0469 326.402 33.5547V33.2812C326.402 32.7207 326.482 32.208 326.642 31.7432C326.801 31.2783 327.029 30.875 327.325 30.5332C327.626 30.1914 327.991 29.9294 328.419 29.7471C328.847 29.5602 329.33 29.4668 329.868 29.4668C330.392 29.4668 330.857 29.5534 331.263 29.7266C331.668 29.8997 332.008 30.1458 332.281 30.4648C332.559 30.7839 332.769 31.1667 332.91 31.6133C333.051 32.0553 333.122 32.5475 333.122 33.0898V33.9102H327.243V32.5977H331.188V32.4473C331.188 32.1738 331.137 31.93 331.037 31.7158C330.941 31.4971 330.796 31.3239 330.6 31.1963C330.404 31.0687 330.153 31.0049 329.848 31.0049C329.588 31.0049 329.365 31.0618 329.178 31.1758C328.991 31.2897 328.838 31.4492 328.72 31.6543C328.606 31.8594 328.519 32.1009 328.46 32.3789C328.405 32.6523 328.378 32.9531 328.378 33.2812V33.5547C328.378 33.8509 328.419 34.1243 328.501 34.375C328.588 34.6257 328.708 34.8421 328.863 35.0244C329.023 35.2067 329.214 35.348 329.438 35.4482C329.665 35.5485 329.923 35.5986 330.21 35.5986C330.565 35.5986 330.896 35.5303 331.201 35.3936C331.511 35.2523 331.778 35.0404 332.001 34.7578L332.958 35.7969C332.803 36.0202 332.591 36.2344 332.322 36.4395C332.058 36.6445 331.739 36.8132 331.365 36.9453C330.992 37.0729 330.565 37.1367 330.087 37.1367ZM339.22 29.6035V31.1484H335.583V29.6035H339.22ZM340.662 29.6035V37H338.693V29.6035H340.662ZM335.091 29.6035H337.025L336.827 33.3359C336.8 33.8691 336.743 34.3385 336.656 34.7441C336.57 35.1497 336.453 35.4961 336.308 35.7832C336.166 36.0703 335.995 36.305 335.795 36.4873C335.599 36.665 335.369 36.7949 335.104 36.877C334.845 36.959 334.558 37 334.243 37H333.642L333.621 35.4482L333.874 35.4209C334.02 35.4072 334.147 35.3662 334.257 35.2979C334.371 35.2249 334.466 35.1224 334.544 34.9902C334.626 34.8535 334.694 34.6826 334.749 34.4775C334.804 34.2679 334.847 34.0218 334.879 33.7393C334.915 33.4567 334.94 33.1309 334.954 32.7617L335.091 29.6035ZM344.148 34.252L346.63 29.6035H348.599V37H346.63V32.3447L344.148 37H342.18V29.6035H344.148V34.252Z" fill="white"/>
<path d="M42.8721 10.8506V20.8037H40.8213V10.8506H42.8721ZM48.7373 10.8506L44.9229 16.6953H42.4141L42.1543 14.8701H43.8291L46.249 10.8506H48.7373ZM46.625 20.8037L43.8359 16.3535L45.2578 14.8906L49.0586 20.8037H46.625ZM51.6631 19.9697L53.625 13.4072H55.7373L52.7637 21.918C52.6999 22.1048 52.6133 22.3053 52.5039 22.5195C52.3991 22.7337 52.2555 22.9365 52.0732 23.1279C51.8955 23.3239 51.6699 23.4834 51.3965 23.6064C51.1276 23.7295 50.7972 23.791 50.4053 23.791C50.2184 23.791 50.0658 23.7796 49.9473 23.7568C49.8288 23.734 49.6875 23.7021 49.5234 23.6611V22.2188C49.5736 22.2188 49.626 22.2188 49.6807 22.2188C49.7354 22.2233 49.7878 22.2256 49.8379 22.2256C50.0977 22.2256 50.3096 22.196 50.4736 22.1367C50.6377 22.0775 50.7699 21.9863 50.8701 21.8633C50.9704 21.7448 51.0501 21.5898 51.1094 21.3984L51.6631 19.9697ZM50.8428 13.4072L52.4492 18.7666L52.7295 20.8516L51.3896 20.9951L48.7305 13.4072H50.8428ZM61.5 13.4072V14.9521H57.918V13.4072H61.5ZM58.4854 13.4072V20.8037H56.5166V13.4072H58.4854ZM62.9355 13.4072V20.8037H60.96V13.4072H62.9355ZM66.415 18.0557L68.8965 13.4072H70.8652V20.8037H68.8965V16.1484L66.415 20.8037H64.4463V13.4072H66.415V18.0557ZM76.1494 13.4072V20.8037H74.1738V13.4072H76.1494ZM78.5283 13.4072V14.9316H71.8291V13.4072H78.5283ZM80.8936 15.6016H83.04C83.7145 15.6016 84.2887 15.7132 84.7627 15.9365C85.2412 16.1553 85.6058 16.4606 85.8564 16.8525C86.1117 17.2445 86.2393 17.6979 86.2393 18.2129C86.2393 18.5866 86.1663 18.9329 86.0205 19.252C85.8792 19.5664 85.6719 19.8398 85.3984 20.0723C85.125 20.3047 84.79 20.4847 84.3936 20.6123C83.9971 20.7399 83.5459 20.8037 83.04 20.8037H79.6631V13.4072H81.6387V19.2725H83.04C83.3363 19.2725 83.5732 19.2246 83.751 19.1289C83.9333 19.0286 84.0654 18.8988 84.1475 18.7393C84.234 18.5798 84.2773 18.4066 84.2773 18.2197C84.2773 18.0238 84.234 17.846 84.1475 17.6865C84.0654 17.5225 83.9333 17.3903 83.751 17.29C83.5732 17.1898 83.3363 17.1396 83.04 17.1396H80.8936V15.6016ZM31.8525 35.4023C32.0941 35.4023 32.3083 35.3568 32.4951 35.2656C32.682 35.1699 32.8278 35.0378 32.9326 34.8691C33.042 34.696 33.099 34.4932 33.1035 34.2607H34.9561C34.9515 34.7803 34.8125 35.2428 34.5391 35.6484C34.2656 36.0495 33.8988 36.3662 33.4385 36.5986C32.9782 36.8265 32.4632 36.9404 31.8936 36.9404C31.3193 36.9404 30.818 36.8447 30.3896 36.6533C29.9658 36.4619 29.6126 36.1976 29.3301 35.8604C29.0475 35.5186 28.8356 35.1221 28.6943 34.6709C28.5531 34.2152 28.4824 33.7275 28.4824 33.208V33.0098C28.4824 32.4857 28.5531 31.998 28.6943 31.5469C28.8356 31.0911 29.0475 30.6947 29.3301 30.3574C29.6126 30.0156 29.9658 29.749 30.3896 29.5576C30.8135 29.3662 31.3102 29.2705 31.8799 29.2705C32.486 29.2705 33.0169 29.3867 33.4727 29.6191C33.9329 29.8516 34.293 30.1842 34.5527 30.6172C34.8171 31.0456 34.9515 31.5537 34.9561 32.1416H33.1035C33.099 31.8955 33.0465 31.6722 32.9463 31.4717C32.8506 31.2712 32.7093 31.1117 32.5225 30.9932C32.3402 30.8701 32.1146 30.8086 31.8457 30.8086C31.5586 30.8086 31.3239 30.8701 31.1416 30.9932C30.9593 31.1117 30.818 31.2757 30.7178 31.4854C30.6175 31.6904 30.5469 31.9251 30.5059 32.1895C30.4694 32.4492 30.4512 32.7227 30.4512 33.0098V33.208C30.4512 33.4951 30.4694 33.7708 30.5059 34.0352C30.5423 34.2995 30.6107 34.5342 30.7109 34.7393C30.8158 34.9443 30.9593 35.1061 31.1416 35.2246C31.3239 35.3431 31.5609 35.4023 31.8525 35.4023ZM35.7832 33.1807V33.0371C35.7832 32.4948 35.8607 31.9958 36.0156 31.54C36.1706 31.0798 36.3962 30.681 36.6924 30.3438C36.9886 30.0065 37.3532 29.7445 37.7861 29.5576C38.2191 29.3662 38.7158 29.2705 39.2764 29.2705C39.8369 29.2705 40.3359 29.3662 40.7734 29.5576C41.2109 29.7445 41.5778 30.0065 41.874 30.3438C42.1748 30.681 42.4027 31.0798 42.5576 31.54C42.7126 31.9958 42.79 32.4948 42.79 33.0371V33.1807C42.79 33.7184 42.7126 34.2174 42.5576 34.6777C42.4027 35.1335 42.1748 35.5322 41.874 35.874C41.5778 36.2113 41.2132 36.4733 40.7803 36.6602C40.3473 36.847 39.8506 36.9404 39.29 36.9404C38.7295 36.9404 38.2305 36.847 37.793 36.6602C37.36 36.4733 36.9932 36.2113 36.6924 35.874C36.3962 35.5322 36.1706 35.1335 36.0156 34.6777C35.8607 34.2174 35.7832 33.7184 35.7832 33.1807ZM37.752 33.0371V33.1807C37.752 33.4906 37.7793 33.7799 37.834 34.0488C37.8887 34.3177 37.9753 34.5547 38.0938 34.7598C38.2168 34.9603 38.3763 35.1175 38.5723 35.2314C38.7682 35.3454 39.0075 35.4023 39.29 35.4023C39.5635 35.4023 39.7982 35.3454 39.9941 35.2314C40.1901 35.1175 40.3473 34.9603 40.4658 34.7598C40.5843 34.5547 40.6709 34.3177 40.7256 34.0488C40.7848 33.7799 40.8145 33.4906 40.8145 33.1807V33.0371C40.8145 32.7363 40.7848 32.4538 40.7256 32.1895C40.6709 31.9206 40.582 31.6836 40.459 31.4785C40.3405 31.2689 40.1833 31.1048 39.9873 30.9863C39.7913 30.8678 39.5544 30.8086 39.2764 30.8086C38.9984 30.8086 38.7614 30.8678 38.5654 30.9863C38.374 31.1048 38.2168 31.2689 38.0938 31.4785C37.9753 31.6836 37.8887 31.9206 37.834 32.1895C37.7793 32.4538 37.752 32.7363 37.752 33.0371ZM50.542 35.4023C50.7835 35.4023 50.9977 35.3568 51.1846 35.2656C51.3714 35.1699 51.5173 35.0378 51.6221 34.8691C51.7314 34.696 51.7884 34.4932 51.793 34.2607H53.6455C53.641 34.7803 53.502 35.2428 53.2285 35.6484C52.9551 36.0495 52.5882 36.3662 52.1279 36.5986C51.6676 36.8265 51.1527 36.9404 50.583 36.9404C50.0088 36.9404 49.5075 36.8447 49.0791 36.6533C48.6553 36.4619 48.3021 36.1976 48.0195 35.8604C47.737 35.5186 47.5251 35.1221 47.3838 34.6709C47.2425 34.2152 47.1719 33.7275 47.1719 33.208V33.0098C47.1719 32.4857 47.2425 31.998 47.3838 31.5469C47.5251 31.0911 47.737 30.6947 48.0195 30.3574C48.3021 30.0156 48.6553 29.749 49.0791 29.5576C49.5029 29.3662 49.9997 29.2705 50.5693 29.2705C51.1755 29.2705 51.7064 29.3867 52.1621 29.6191C52.6224 29.8516 52.9824 30.1842 53.2422 30.6172C53.5065 31.0456 53.641 31.5537 53.6455 32.1416H51.793C51.7884 31.8955 51.736 31.6722 51.6357 31.4717C51.54 31.2712 51.3988 31.1117 51.2119 30.9932C51.0296 30.8701 50.804 30.8086 50.5352 30.8086C50.248 30.8086 50.0133 30.8701 49.8311 30.9932C49.6488 31.1117 49.5075 31.2757 49.4072 31.4854C49.307 31.6904 49.2363 31.9251 49.1953 32.1895C49.1589 32.4492 49.1406 32.7227 49.1406 33.0098V33.208C49.1406 33.4951 49.1589 33.7708 49.1953 34.0352C49.2318 34.2995 49.3001 34.5342 49.4004 34.7393C49.5052 34.9443 49.6488 35.1061 49.8311 35.2246C50.0133 35.3431 50.2503 35.4023 50.542 35.4023ZM56.8857 29.4072V36.8037H54.917V29.4072H56.8857ZM61.6914 29.4072L58.5059 34.0352H56.5371L56.2979 32.2168H57.6035L59.1963 29.4072H61.6914ZM59.2852 36.8037L57.4668 33.6797L59.1826 32.7295L61.9238 36.8037H59.2852ZM64.624 34.0557L67.1055 29.4072H69.0742V36.8037H67.1055V32.1484L64.624 36.8037H62.6553V29.4072H64.624V34.0557ZM71.9248 29.4072H73.8936L73.832 31.8818C73.8138 32.6748 73.7227 33.3561 73.5586 33.9258C73.3945 34.4954 73.1758 34.974 72.9023 35.3613C72.6289 35.7487 72.3167 36.0586 71.9658 36.291C71.6195 36.5189 71.2549 36.6898 70.8721 36.8037H70.5029L70.4824 35.2861L70.6875 35.2656C70.9199 35.0241 71.1113 34.7894 71.2617 34.5615C71.4121 34.3291 71.5283 34.0853 71.6104 33.8301C71.6924 33.5749 71.7516 33.29 71.7881 32.9756C71.8291 32.6611 71.8542 32.2965 71.8633 31.8818L71.9248 29.4072ZM72.458 29.4072H77.3594V36.8037H75.3975V30.9863H72.458V29.4072ZM70.0518 35.2656H78.4189V39.0254H76.4502V36.8037H72.0684V39.0254H70.0518V35.2656ZM81.4404 29.4072V36.8037H79.4717V29.4072H81.4404ZM86.2461 29.4072L83.0605 34.0352H81.0918L80.8525 32.2168H82.1582L83.751 29.4072H86.2461ZM83.8398 36.8037L82.0215 33.6797L83.7373 32.7295L86.4785 36.8037H83.8398ZM86.5879 33.1807V33.0371C86.5879 32.4948 86.6654 31.9958 86.8203 31.54C86.9753 31.0798 87.2008 30.681 87.4971 30.3438C87.7933 30.0065 88.1579 29.7445 88.5908 29.5576C89.0238 29.3662 89.5205 29.2705 90.0811 29.2705C90.6416 29.2705 91.1406 29.3662 91.5781 29.5576C92.0156 29.7445 92.3825 30.0065 92.6787 30.3438C92.9795 30.681 93.2074 31.0798 93.3623 31.54C93.5173 31.9958 93.5947 32.4948 93.5947 33.0371V33.1807C93.5947 33.7184 93.5173 34.2174 93.3623 34.6777C93.2074 35.1335 92.9795 35.5322 92.6787 35.874C92.3825 36.2113 92.0179 36.4733 91.585 36.6602C91.152 36.847 90.6553 36.9404 90.0947 36.9404C89.5342 36.9404 89.0352 36.847 88.5977 36.6602C88.1647 36.4733 87.7979 36.2113 87.4971 35.874C87.2008 35.5322 86.9753 35.1335 86.8203 34.6777C86.6654 34.2174 86.5879 33.7184 86.5879 33.1807ZM88.5566 33.0371V33.1807C88.5566 33.4906 88.584 33.7799 88.6387 34.0488C88.6934 34.3177 88.7799 34.5547 88.8984 34.7598C89.0215 34.9603 89.181 35.1175 89.377 35.2314C89.5729 35.3454 89.8122 35.4023 90.0947 35.4023C90.3682 35.4023 90.6029 35.3454 90.7988 35.2314C90.9948 35.1175 91.152 34.9603 91.2705 34.7598C91.389 34.5547 91.4756 34.3177 91.5303 34.0488C91.5895 33.7799 91.6191 33.4906 91.6191 33.1807V33.0371C91.6191 32.7363 91.5895 32.4538 91.5303 32.1895C91.4756 31.9206 91.3867 31.6836 91.2637 31.4785C91.1452 31.2689 90.988 31.1048 90.792 30.9863C90.596 30.8678 90.359 30.8086 90.0811 30.8086C89.8031 30.8086 89.5661 30.8678 89.3701 30.9863C89.1787 31.1048 89.0215 31.2689 88.8984 31.4785C88.7799 31.6836 88.6934 31.9206 88.6387 32.1895C88.584 32.4538 88.5566 32.7363 88.5566 33.0371ZM96.7666 34.0557L99.248 29.4072H101.217V36.8037H99.248V32.1484L96.7666 36.8037H94.7979V29.4072H96.7666V34.0557ZM99.0225 26.4336H100.424C100.424 26.8255 100.326 27.1742 100.13 27.4795C99.9385 27.7803 99.665 28.0173 99.3096 28.1904C98.9541 28.359 98.5348 28.4434 98.0518 28.4434C97.318 28.4434 96.737 28.2565 96.3086 27.8828C95.8848 27.5091 95.6729 27.026 95.6729 26.4336H97.0674C97.0674 26.6706 97.1403 26.8825 97.2861 27.0693C97.4365 27.2562 97.6917 27.3496 98.0518 27.3496C98.4072 27.3496 98.6579 27.2562 98.8037 27.0693C98.9495 26.8825 99.0225 26.6706 99.0225 26.4336Z" fill="white"/>
<path d="M154.209 17.4521H151.673V15.8525H154.209C154.601 15.8525 154.92 15.7887 155.166 15.6611C155.412 15.529 155.592 15.3467 155.706 15.1143C155.82 14.8818 155.877 14.6198 155.877 14.3281C155.877 14.0319 155.82 13.7562 155.706 13.501C155.592 13.2458 155.412 13.0407 155.166 12.8857C154.92 12.7308 154.601 12.6533 154.209 12.6533H152.384V21H150.333V11.0469H154.209C154.988 11.0469 155.656 11.1882 156.212 11.4707C156.772 11.7487 157.201 12.1338 157.497 12.626C157.793 13.1182 157.941 13.681 157.941 14.3145C157.941 14.957 157.793 15.513 157.497 15.9824C157.201 16.4518 156.772 16.8141 156.212 17.0693C155.656 17.3245 154.988 17.4521 154.209 17.4521ZM163.144 19.332V16.0371C163.144 15.8001 163.105 15.5973 163.027 15.4287C162.95 15.2555 162.829 15.1211 162.665 15.0254C162.506 14.9297 162.298 14.8818 162.043 14.8818C161.824 14.8818 161.635 14.9206 161.476 14.998C161.316 15.071 161.193 15.1781 161.106 15.3193C161.02 15.4561 160.977 15.6178 160.977 15.8047H159.008C159.008 15.4902 159.081 15.1917 159.227 14.9092C159.372 14.6266 159.584 14.3783 159.862 14.1641C160.14 13.9453 160.471 13.7744 160.854 13.6514C161.241 13.5283 161.674 13.4668 162.152 13.4668C162.727 13.4668 163.237 13.5625 163.684 13.7539C164.13 13.9453 164.481 14.2324 164.736 14.6152C164.996 14.998 165.126 15.4766 165.126 16.0508V19.2158C165.126 19.6214 165.151 19.9541 165.201 20.2139C165.251 20.4691 165.324 20.6924 165.42 20.8838V21H163.431C163.335 20.7995 163.262 20.5488 163.212 20.248C163.166 19.9427 163.144 19.6374 163.144 19.332ZM163.403 16.4951L163.417 17.6094H162.316C162.057 17.6094 161.831 17.639 161.64 17.6982C161.448 17.7575 161.291 17.8418 161.168 17.9512C161.045 18.056 160.954 18.179 160.895 18.3203C160.84 18.4616 160.812 18.6165 160.812 18.7852C160.812 18.9538 160.851 19.1064 160.929 19.2432C161.006 19.3753 161.118 19.4801 161.264 19.5576C161.41 19.6305 161.58 19.667 161.776 19.667C162.073 19.667 162.33 19.6077 162.549 19.4893C162.768 19.3708 162.936 19.2249 163.055 19.0518C163.178 18.8786 163.242 18.7145 163.246 18.5596L163.766 19.3936C163.693 19.5804 163.592 19.7741 163.465 19.9746C163.342 20.1751 163.185 20.3643 162.993 20.542C162.802 20.7152 162.572 20.8587 162.303 20.9727C162.034 21.082 161.715 21.1367 161.346 21.1367C160.876 21.1367 160.45 21.0433 160.067 20.8564C159.689 20.665 159.388 20.403 159.165 20.0703C158.946 19.7331 158.837 19.3503 158.837 18.9219C158.837 18.5345 158.91 18.1904 159.056 17.8896C159.201 17.5889 159.416 17.3359 159.698 17.1309C159.985 16.9212 160.343 16.764 160.771 16.6592C161.2 16.5498 161.697 16.4951 162.262 16.4951H163.403ZM169.699 19.5986C169.941 19.5986 170.155 19.5531 170.342 19.4619C170.529 19.3662 170.674 19.234 170.779 19.0654C170.889 18.8923 170.946 18.6895 170.95 18.457H172.803C172.798 18.9766 172.659 19.4391 172.386 19.8447C172.112 20.2458 171.745 20.5625 171.285 20.7949C170.825 21.0228 170.31 21.1367 169.74 21.1367C169.166 21.1367 168.665 21.041 168.236 20.8496C167.812 20.6582 167.459 20.3939 167.177 20.0566C166.894 19.7148 166.682 19.3184 166.541 18.8672C166.4 18.4115 166.329 17.9238 166.329 17.4043V17.2061C166.329 16.682 166.4 16.1943 166.541 15.7432C166.682 15.2874 166.894 14.891 167.177 14.5537C167.459 14.2119 167.812 13.9453 168.236 13.7539C168.66 13.5625 169.157 13.4668 169.727 13.4668C170.333 13.4668 170.864 13.583 171.319 13.8154C171.78 14.0479 172.14 14.3805 172.399 14.8135C172.664 15.2419 172.798 15.75 172.803 16.3379H170.95C170.946 16.0918 170.893 15.8685 170.793 15.668C170.697 15.4674 170.556 15.3079 170.369 15.1895C170.187 15.0664 169.961 15.0049 169.692 15.0049C169.405 15.0049 169.171 15.0664 168.988 15.1895C168.806 15.3079 168.665 15.472 168.564 15.6816C168.464 15.8867 168.394 16.1214 168.353 16.3857C168.316 16.6455 168.298 16.9189 168.298 17.2061V17.4043C168.298 17.6914 168.316 17.9671 168.353 18.2314C168.389 18.4958 168.457 18.7305 168.558 18.9355C168.662 19.1406 168.806 19.3024 168.988 19.4209C169.171 19.5394 169.408 19.5986 169.699 19.5986ZM177 19.5986C177.242 19.5986 177.456 19.5531 177.643 19.4619C177.829 19.3662 177.975 19.234 178.08 19.0654C178.189 18.8923 178.246 18.6895 178.251 18.457H180.104C180.099 18.9766 179.96 19.4391 179.687 19.8447C179.413 20.2458 179.046 20.5625 178.586 20.7949C178.126 21.0228 177.611 21.1367 177.041 21.1367C176.467 21.1367 175.965 21.041 175.537 20.8496C175.113 20.6582 174.76 20.3939 174.478 20.0566C174.195 19.7148 173.983 19.3184 173.842 18.8672C173.701 18.4115 173.63 17.9238 173.63 17.4043V17.2061C173.63 16.682 173.701 16.1943 173.842 15.7432C173.983 15.2874 174.195 14.891 174.478 14.5537C174.76 14.2119 175.113 13.9453 175.537 13.7539C175.961 13.5625 176.458 13.4668 177.027 13.4668C177.633 13.4668 178.164 13.583 178.62 13.8154C179.08 14.0479 179.44 14.3805 179.7 14.8135C179.965 15.2419 180.099 15.75 180.104 16.3379H178.251C178.246 16.0918 178.194 15.8685 178.094 15.668C177.998 15.4674 177.857 15.3079 177.67 15.1895C177.488 15.0664 177.262 15.0049 176.993 15.0049C176.706 15.0049 176.471 15.0664 176.289 15.1895C176.107 15.3079 175.965 15.472 175.865 15.6816C175.765 15.8867 175.694 16.1214 175.653 16.3857C175.617 16.6455 175.599 16.9189 175.599 17.2061V17.4043C175.599 17.6914 175.617 17.9671 175.653 18.2314C175.69 18.4958 175.758 18.7305 175.858 18.9355C175.963 19.1406 176.107 19.3024 176.289 19.4209C176.471 19.5394 176.708 19.5986 177 19.5986ZM187.479 13.6035V21H185.504V13.6035H187.479ZM186.55 16.7686V18.3066C186.399 18.3841 186.206 18.457 185.969 18.5254C185.732 18.5938 185.481 18.6484 185.217 18.6895C184.957 18.7259 184.715 18.7441 184.492 18.7441C183.781 18.7441 183.171 18.6462 182.66 18.4502C182.154 18.2542 181.765 17.9466 181.491 17.5273C181.218 17.1081 181.081 16.5703 181.081 15.9141V13.5967H183.05V15.9141C183.05 16.2467 183.1 16.5088 183.2 16.7002C183.3 16.887 183.455 17.0192 183.665 17.0967C183.879 17.1696 184.155 17.2061 184.492 17.2061C184.729 17.2061 184.959 17.1878 185.183 17.1514C185.406 17.1149 185.629 17.0648 185.853 17.001C186.076 16.9372 186.308 16.8597 186.55 16.7686ZM190.959 18.252L193.44 13.6035H195.409V21H193.44V16.3447L190.959 21H188.99V13.6035H190.959V18.252ZM200.693 13.6035V21H198.718V13.6035H200.693ZM203.072 13.6035V15.1279H196.373V13.6035H203.072ZM207.96 19.332V16.0371C207.96 15.8001 207.921 15.5973 207.844 15.4287C207.766 15.2555 207.646 15.1211 207.481 15.0254C207.322 14.9297 207.115 14.8818 206.859 14.8818C206.641 14.8818 206.451 14.9206 206.292 14.998C206.132 15.071 206.009 15.1781 205.923 15.3193C205.836 15.4561 205.793 15.6178 205.793 15.8047H203.824C203.824 15.4902 203.897 15.1917 204.043 14.9092C204.189 14.6266 204.401 14.3783 204.679 14.1641C204.957 13.9453 205.287 13.7744 205.67 13.6514C206.057 13.5283 206.49 13.4668 206.969 13.4668C207.543 13.4668 208.053 13.5625 208.5 13.7539C208.947 13.9453 209.298 14.2324 209.553 14.6152C209.812 14.998 209.942 15.4766 209.942 16.0508V19.2158C209.942 19.6214 209.967 19.9541 210.018 20.2139C210.068 20.4691 210.141 20.6924 210.236 20.8838V21H208.247C208.151 20.7995 208.078 20.5488 208.028 20.248C207.983 19.9427 207.96 19.6374 207.96 19.332ZM208.22 16.4951L208.233 17.6094H207.133C206.873 17.6094 206.647 17.639 206.456 17.6982C206.265 17.7575 206.107 17.8418 205.984 17.9512C205.861 18.056 205.77 18.179 205.711 18.3203C205.656 18.4616 205.629 18.6165 205.629 18.7852C205.629 18.9538 205.668 19.1064 205.745 19.2432C205.823 19.3753 205.934 19.4801 206.08 19.5576C206.226 19.6305 206.397 19.667 206.593 19.667C206.889 19.667 207.146 19.6077 207.365 19.4893C207.584 19.3708 207.753 19.2249 207.871 19.0518C207.994 18.8786 208.058 18.7145 208.062 18.5596L208.582 19.3936C208.509 19.5804 208.409 19.7741 208.281 19.9746C208.158 20.1751 208.001 20.3643 207.81 20.542C207.618 20.7152 207.388 20.8587 207.119 20.9727C206.85 21.082 206.531 21.1367 206.162 21.1367C205.693 21.1367 205.267 21.0433 204.884 20.8564C204.506 20.665 204.205 20.403 203.981 20.0703C203.763 19.7331 203.653 19.3503 203.653 18.9219C203.653 18.5345 203.726 18.1904 203.872 17.8896C204.018 17.5889 204.232 17.3359 204.515 17.1309C204.802 16.9212 205.16 16.764 205.588 16.6592C206.016 16.5498 206.513 16.4951 207.078 16.4951H208.22ZM215.117 13.6035V21H213.142V13.6035H215.117ZM217.496 13.6035V15.1279H210.797V13.6035H217.496ZM219.861 15.7979H222.008C222.682 15.7979 223.257 15.9095 223.73 16.1328C224.209 16.3516 224.574 16.6569 224.824 17.0488C225.079 17.4408 225.207 17.8942 225.207 18.4092C225.207 18.7829 225.134 19.1292 224.988 19.4482C224.847 19.7627 224.64 20.0361 224.366 20.2686C224.093 20.501 223.758 20.681 223.361 20.8086C222.965 20.9362 222.514 21 222.008 21H218.631V13.6035H220.606V19.4688H222.008C222.304 19.4688 222.541 19.4209 222.719 19.3252C222.901 19.2249 223.033 19.0951 223.115 18.9355C223.202 18.776 223.245 18.6029 223.245 18.416C223.245 18.2201 223.202 18.0423 223.115 17.8828C223.033 17.7188 222.901 17.5866 222.719 17.4863C222.541 17.3861 222.304 17.3359 222.008 17.3359H219.861V15.7979ZM166.794 29.6035V37H164.825V29.6035H166.794ZM171.6 29.6035L168.414 34.2314H166.445L166.206 32.4131H167.512L169.104 29.6035H171.6ZM169.193 37L167.375 33.876L169.091 32.9258L171.832 37H169.193ZM174.539 31.0254V39.8438H172.57V29.6035H174.396L174.539 31.0254ZM179.222 33.2197V33.3633C179.222 33.901 179.158 34.4001 179.03 34.8604C178.907 35.3206 178.725 35.7217 178.483 36.0635C178.242 36.4007 177.941 36.665 177.581 36.8564C177.226 37.0433 176.815 37.1367 176.351 37.1367C175.899 37.1367 175.507 37.0456 175.175 36.8633C174.842 36.681 174.562 36.4258 174.334 36.0977C174.111 35.765 173.931 35.3799 173.794 34.9424C173.657 34.5049 173.552 34.0355 173.479 33.5342V33.1582C173.552 32.6204 173.657 32.1283 173.794 31.6816C173.931 31.2305 174.111 30.8408 174.334 30.5127C174.562 30.18 174.84 29.9225 175.168 29.7402C175.501 29.5579 175.89 29.4668 176.337 29.4668C176.806 29.4668 177.219 29.5557 177.574 29.7334C177.934 29.9111 178.235 30.1663 178.477 30.499C178.723 30.8317 178.907 31.2282 179.03 31.6885C179.158 32.1488 179.222 32.6592 179.222 33.2197ZM177.246 33.3633V33.2197C177.246 32.9053 177.219 32.6159 177.164 32.3516C177.114 32.0827 177.032 31.848 176.918 31.6475C176.809 31.4469 176.663 31.292 176.48 31.1826C176.303 31.0687 176.086 31.0117 175.831 31.0117C175.562 31.0117 175.332 31.055 175.141 31.1416C174.954 31.2282 174.801 31.3535 174.683 31.5176C174.564 31.6816 174.475 31.8776 174.416 32.1055C174.357 32.3333 174.32 32.5908 174.307 32.8779V33.8281C174.329 34.1654 174.393 34.4684 174.498 34.7373C174.603 35.0016 174.765 35.2113 174.983 35.3662C175.202 35.5212 175.489 35.5986 175.845 35.5986C176.104 35.5986 176.323 35.5417 176.501 35.4277C176.679 35.3092 176.822 35.1475 176.932 34.9424C177.046 34.7373 177.125 34.5003 177.171 34.2314C177.221 33.9626 177.246 33.6732 177.246 33.3633ZM183.85 37.1367C183.275 37.1367 182.76 37.0456 182.305 36.8633C181.849 36.6764 181.462 36.4189 181.143 36.0908C180.828 35.7627 180.587 35.3822 180.418 34.9492C180.249 34.5117 180.165 34.0469 180.165 33.5547V33.2812C180.165 32.7207 180.245 32.208 180.404 31.7432C180.564 31.2783 180.792 30.875 181.088 30.5332C181.389 30.1914 181.753 29.9294 182.182 29.7471C182.61 29.5602 183.093 29.4668 183.631 29.4668C184.155 29.4668 184.62 29.5534 185.025 29.7266C185.431 29.8997 185.771 30.1458 186.044 30.4648C186.322 30.7839 186.532 31.1667 186.673 31.6133C186.814 32.0553 186.885 32.5475 186.885 33.0898V33.9102H181.006V32.5977H184.95V32.4473C184.95 32.1738 184.9 31.93 184.8 31.7158C184.704 31.4971 184.558 31.3239 184.362 31.1963C184.166 31.0687 183.916 31.0049 183.61 31.0049C183.351 31.0049 183.127 31.0618 182.94 31.1758C182.754 31.2897 182.601 31.4492 182.482 31.6543C182.368 31.8594 182.282 32.1009 182.223 32.3789C182.168 32.6523 182.141 32.9531 182.141 33.2812V33.5547C182.141 33.8509 182.182 34.1243 182.264 34.375C182.35 34.6257 182.471 34.8421 182.626 35.0244C182.785 35.2067 182.977 35.348 183.2 35.4482C183.428 35.5485 183.686 35.5986 183.973 35.5986C184.328 35.5986 184.659 35.5303 184.964 35.3936C185.274 35.2523 185.54 35.0404 185.764 34.7578L186.721 35.7969C186.566 36.0202 186.354 36.2344 186.085 36.4395C185.821 36.6445 185.502 36.8132 185.128 36.9453C184.754 37.0729 184.328 37.1367 183.85 37.1367ZM189.339 29.6035H191.308L191.246 32.0781C191.228 32.8711 191.137 33.5524 190.973 34.1221C190.809 34.6917 190.59 35.1702 190.316 35.5576C190.043 35.945 189.731 36.2549 189.38 36.4873C189.034 36.7152 188.669 36.8861 188.286 37H187.917L187.896 35.4824L188.102 35.4619C188.334 35.2204 188.525 34.9857 188.676 34.7578C188.826 34.5254 188.942 34.2816 189.024 34.0264C189.106 33.7712 189.166 33.4863 189.202 33.1719C189.243 32.8574 189.268 32.4928 189.277 32.0781L189.339 29.6035ZM189.872 29.6035H194.773V37H192.812V31.1826H189.872V29.6035ZM187.466 35.4619H195.833V39.2217H193.864V37H189.482V39.2217H187.466V35.4619ZM198.718 34.252L201.199 29.6035H203.168V37H201.199V32.3447L198.718 37H196.749V29.6035H198.718V34.252ZM208.452 29.6035V37H206.477V29.6035H208.452ZM210.831 29.6035V31.1279H204.132V29.6035H210.831Z" fill="white"/>
</svg>
