<svg width="27" height="27" viewBox="0 0 27 27" fill="none" xmlns="http://www.w3.org/2000/svg">
<path d="M0 13.5001C0 20.9559 6.04416 27.0001 13.5 27.0001C20.9558 27.0001 27 20.9559 27 13.5001C27 6.04422 20.9558 0 13.5 0C6.04416 0 0 6.04422 0 13.5001Z" fill="#CA0100"/>
<path d="M13.6439 8.08508C18.4949 8.08508 22.2344 10.4375 22.2344 13.6436C22.2344 16.8497 18.4949 19.2021 13.6439 19.2021C8.79292 19.2021 5.05352 16.8497 5.05352 13.6436C5.05352 10.4375 8.79303 8.08508 13.6439 8.08508ZM8.39427 10.7029C8.39427 11.4389 9.62879 12.0066 11.6069 12.2343C11.7915 10.4742 12.3258 9.3161 13.0115 8.88392C10.9013 9.00889 8.39427 9.72087 8.39427 10.7026V10.7029ZM13.6439 16.644C14.3316 16.644 14.8936 15.6216 14.9375 13.6518C14.5249 13.6839 14.0937 13.7002 13.6439 13.7009C13.1941 13.7015 12.7629 13.6852 12.3504 13.6518C12.3942 15.6216 12.9564 16.6437 13.6439 16.6437V16.644ZM13.6439 12.343C14.0667 12.343 14.4698 12.3309 14.8532 12.3067C14.6656 11.1283 14.195 10.1591 13.6439 10.1591C13.0928 10.1591 12.6228 11.1283 12.4347 12.3067C12.8177 12.3301 13.2208 12.3421 13.6439 12.3427V12.343ZM14.2749 8.88293C14.9615 9.31451 15.4962 10.4727 15.6804 12.2341C17.6591 12.0063 18.8936 11.4386 18.8936 10.7026C18.8936 9.718 16.3863 9.00482 14.2749 8.88263V8.88293ZM20.7756 13.4252C20.7775 12.6477 20.5142 11.8906 20.0254 11.2679C19.8334 12.3229 18.218 13.2333 15.7505 13.5656C15.7505 13.5918 15.7513 13.6174 15.7513 13.6439C15.7513 16.2159 15.123 17.8735 14.2595 18.3965C17.9102 18.1765 20.7756 16.0227 20.7756 13.4252ZM13.0286 18.3965C12.1651 17.8735 11.5368 16.2159 11.5368 13.6439C11.5368 13.6174 11.5375 13.5918 11.5376 13.5656C9.07008 13.2328 7.45473 12.3229 7.26269 11.2679C6.77388 11.8906 6.5106 12.6477 6.51248 13.4252C6.51227 16.0227 9.37809 18.1765 13.0286 18.396V18.3965Z" fill="white"/>
</svg>
