<svg width="319" height="60" viewBox="0 0 319 60" fill="none" xmlns="http://www.w3.org/2000/svg">
<circle cx="124" cy="45" r="14.5" fill="white" stroke="#E1E1E1"/>
<circle cx="160" cy="45" r="15" fill="#C4C4C4"/>
<circle cx="88" cy="45" r="14.5" fill="#E8E8E8" stroke="#E1E1E1"/>
<circle cx="196" cy="45" r="15" fill="#6A6A6A"/>
<circle cx="232" cy="45" r="15" fill="#262626"/>
<circle cx="52" cy="45" r="15" fill="#FF0000"/>
<circle cx="16" cy="45" r="15" fill="#0481C7"/>
<circle cx="268" cy="45" r="15" fill="#A02323"/>
<circle cx="304" cy="45" r="15" fill="#625A55"/>
<circle cx="243.5" cy="30.5" r="11" fill="#CA0100" stroke="white"/>
<g clip-path="url(#clip0_1565_25447)">
<path d="M243.737 34.3875C243.263 34.8409 242.493 34.8409 242.019 34.3875L239.356 31.8431C238.881 31.3899 238.881 30.6542 239.356 30.2011C239.83 29.7477 240.6 29.7477 241.074 30.2011L242.661 31.7168C242.781 31.8311 242.975 31.8311 243.095 31.7168L247.391 27.612C247.865 27.1586 248.635 27.1586 249.109 27.612C249.337 27.8297 249.465 28.1251 249.465 28.433C249.465 28.7409 249.337 29.0363 249.109 29.254L243.737 34.3875Z" fill="white"/>
</g>
<path d="M1.36719 3.625H2.875V13.7734H8.48438V3.625H9.98438V13.7422H11.1797L11.0391 17.7422H9.6875V15H1.36719V3.625ZM12.9297 15V6.54688H16.2266C17.3516 6.54688 18.2135 6.74479 18.8125 7.14062C19.4167 7.53125 19.7188 8.10677 19.7188 8.86719C19.7188 9.25781 19.6016 9.61198 19.3672 9.92969C19.1328 10.2422 18.7865 10.4818 18.3281 10.6484C18.8385 10.7682 19.2474 11.0026 19.5547 11.3516C19.8672 11.7005 20.0234 12.1172 20.0234 12.6016C20.0234 13.3776 19.737 13.9714 19.1641 14.3828C18.5964 14.7943 17.7917 15 16.75 15H12.9297ZM14.375 11.2891V13.8359H16.7656C17.3698 13.8359 17.8203 13.724 18.1172 13.5C18.4193 13.276 18.5703 12.9609 18.5703 12.5547C18.5703 11.7109 17.9505 11.2891 16.7109 11.2891H14.375ZM14.375 10.1328H16.2422C17.5964 10.1328 18.2734 9.73698 18.2734 8.94531C18.2734 8.15365 17.6328 7.74479 16.3516 7.71875H14.375V10.1328ZM25.4453 15.1562C24.2995 15.1562 23.3672 14.7812 22.6484 14.0312C21.9297 13.276 21.5703 12.2682 21.5703 11.0078V10.7422C21.5703 9.90365 21.7292 9.15625 22.0469 8.5C22.3698 7.83854 22.8177 7.32292 23.3906 6.95312C23.9688 6.57812 24.5938 6.39062 25.2656 6.39062C26.3646 6.39062 27.2188 6.7526 27.8281 7.47656C28.4375 8.20052 28.7422 9.23698 28.7422 10.5859V11.1875H23.0156C23.0365 12.0208 23.2786 12.6953 23.7422 13.2109C24.2109 13.7214 24.8047 13.9766 25.5234 13.9766C26.0339 13.9766 26.4661 13.8724 26.8203 13.6641C27.1745 13.4557 27.4844 13.1797 27.75 12.8359L28.6328 13.5234C27.9245 14.612 26.862 15.1562 25.4453 15.1562ZM25.2656 7.57812C24.6823 7.57812 24.1927 7.79167 23.7969 8.21875C23.401 8.64062 23.1562 9.23438 23.0625 10H27.2969V9.89062C27.2552 9.15625 27.0573 8.58854 26.7031 8.1875C26.349 7.78125 25.8698 7.57812 25.2656 7.57812ZM36.6094 7.71875H33.7734V15H32.3281V7.71875H29.5469V6.54688H36.6094V7.71875ZM37.9688 14.2422C37.9688 13.9922 38.0417 13.7839 38.1875 13.6172C38.3385 13.4505 38.5625 13.3672 38.8594 13.3672C39.1562 13.3672 39.3802 13.4505 39.5312 13.6172C39.6875 13.7839 39.7656 13.9922 39.7656 14.2422C39.7656 14.4818 39.6875 14.6823 39.5312 14.8438C39.3802 15.0052 39.1562 15.0859 38.8594 15.0859C38.5625 15.0859 38.3385 15.0052 38.1875 14.8438C38.0417 14.6823 37.9688 14.4818 37.9688 14.2422ZM37.9766 7.34375C37.9766 7.09375 38.0495 6.88542 38.1953 6.71875C38.3464 6.55208 38.5703 6.46875 38.8672 6.46875C39.1641 6.46875 39.388 6.55208 39.5391 6.71875C39.6953 6.88542 39.7734 7.09375 39.7734 7.34375C39.7734 7.58333 39.6953 7.78385 39.5391 7.94531C39.388 8.10677 39.1641 8.1875 38.8672 8.1875C38.5703 8.1875 38.3464 8.10677 38.1953 7.94531C38.0495 7.78385 37.9766 7.58333 37.9766 7.34375ZM54.8281 15H53.3203L47.5938 6.23438V15H46.0859V3.625H47.5938L53.3359 12.4297V3.625H54.8281V15ZM58.8359 15H57.3906V6.54688H58.8359V15ZM57.2734 4.30469C57.2734 4.07031 57.3438 3.8724 57.4844 3.71094C57.6302 3.54948 57.8438 3.46875 58.125 3.46875C58.4062 3.46875 58.6198 3.54948 58.7656 3.71094C58.9115 3.8724 58.9844 4.07031 58.9844 4.30469C58.9844 4.53906 58.9115 4.73438 58.7656 4.89062C58.6198 5.04688 58.4062 5.125 58.125 5.125C57.8438 5.125 57.6302 5.04688 57.4844 4.89062C57.3438 4.73438 57.2734 4.53906 57.2734 4.30469ZM60.8125 10.7031C60.8125 9.38542 61.1172 8.33854 61.7266 7.5625C62.3359 6.78125 63.1432 6.39062 64.1484 6.39062C65.1797 6.39062 65.9844 6.75521 66.5625 7.48438L66.6328 6.54688H67.9531V14.7969C67.9531 15.8906 67.6276 16.7526 66.9766 17.3828C66.3307 18.013 65.4609 18.3281 64.3672 18.3281C63.7578 18.3281 63.1615 18.1979 62.5781 17.9375C61.9948 17.6771 61.5495 17.3203 61.2422 16.8672L61.9922 16C62.612 16.7656 63.3698 17.1484 64.2656 17.1484C64.9688 17.1484 65.5156 16.9505 65.9062 16.5547C66.3021 16.1589 66.5 15.6016 66.5 14.8828V14.1562C65.9219 14.8229 65.1328 15.1562 64.1328 15.1562C63.1432 15.1562 62.3411 14.7578 61.7266 13.9609C61.1172 13.1641 60.8125 12.0781 60.8125 10.7031ZM62.2656 10.8672C62.2656 11.8203 62.4609 12.5703 62.8516 13.1172C63.2422 13.6589 63.7891 13.9297 64.4922 13.9297C65.4036 13.9297 66.0729 13.5156 66.5 12.6875V8.82812C66.0573 8.02083 65.3932 7.61719 64.5078 7.61719C63.8047 7.61719 63.2552 7.89062 62.8594 8.4375C62.4635 8.98438 62.2656 9.79427 62.2656 10.8672ZM71.5859 7.57031C72.2266 6.78385 73.0599 6.39062 74.0859 6.39062C75.8724 6.39062 76.7734 7.39844 76.7891 9.41406V15H75.3438V9.40625C75.3385 8.79688 75.1979 8.34635 74.9219 8.05469C74.651 7.76302 74.2266 7.61719 73.6484 7.61719C73.1797 7.61719 72.7682 7.74219 72.4141 7.99219C72.0599 8.24219 71.7839 8.57031 71.5859 8.97656V15H70.1406V3H71.5859V7.57031ZM80.9141 4.5V6.54688H82.4922V7.66406H80.9141V12.9062C80.9141 13.2448 80.9844 13.5 81.125 13.6719C81.2656 13.8385 81.5052 13.9219 81.8438 13.9219C82.0104 13.9219 82.2396 13.8906 82.5312 13.8281V15C82.151 15.1042 81.7812 15.1562 81.4219 15.1562C80.776 15.1562 80.2891 14.9609 79.9609 14.5703C79.6328 14.1797 79.4688 13.625 79.4688 12.9062V7.66406H77.9297V6.54688H79.4688V4.5H80.9141ZM88.3828 15V3.625H92.1016C93.3359 3.625 94.263 3.88021 94.8828 4.39062C95.5078 4.90104 95.8203 5.65625 95.8203 6.65625C95.8203 7.1875 95.6693 7.65885 95.3672 8.07031C95.0651 8.47656 94.6536 8.79167 94.1328 9.01562C94.7474 9.1875 95.2318 9.51562 95.5859 10C95.9453 10.4792 96.125 11.0521 96.125 11.7188C96.125 12.7396 95.7943 13.5417 95.1328 14.125C94.4714 14.7083 93.5365 15 92.3281 15H88.3828ZM89.8828 9.67969V13.7734H92.3594C93.0573 13.7734 93.6068 13.5938 94.0078 13.2344C94.4141 12.8698 94.6172 12.3698 94.6172 11.7344C94.6172 10.3646 93.8724 9.67969 92.3828 9.67969H89.8828ZM89.8828 8.47656H92.1484C92.8047 8.47656 93.3281 8.3125 93.7188 7.98438C94.1146 7.65625 94.3125 7.21094 94.3125 6.64844C94.3125 6.02344 94.1302 5.57031 93.7656 5.28906C93.401 5.0026 92.8464 4.85938 92.1016 4.85938H89.8828V8.47656ZM99.6953 15H98.25V3H99.6953V15ZM107.234 15C107.151 14.8333 107.083 14.5365 107.031 14.1094C106.359 14.8073 105.557 15.1562 104.625 15.1562C103.792 15.1562 103.107 14.9219 102.57 14.4531C102.039 13.9792 101.773 13.3802 101.773 12.6562C101.773 11.776 102.107 11.0938 102.773 10.6094C103.445 10.1198 104.388 9.875 105.602 9.875H107.008V9.21094C107.008 8.70573 106.857 8.30469 106.555 8.00781C106.253 7.70573 105.807 7.55469 105.219 7.55469C104.703 7.55469 104.271 7.6849 103.922 7.94531C103.573 8.20573 103.398 8.52083 103.398 8.89062H101.945C101.945 8.46875 102.094 8.0625 102.391 7.67188C102.693 7.27604 103.099 6.96354 103.609 6.73438C104.125 6.50521 104.69 6.39062 105.305 6.39062C106.279 6.39062 107.042 6.63542 107.594 7.125C108.146 7.60938 108.432 8.27865 108.453 9.13281V13.0234C108.453 13.7995 108.552 14.4167 108.75 14.875V15H107.234ZM104.836 13.8984C105.289 13.8984 105.719 13.7812 106.125 13.5469C106.531 13.3125 106.826 13.0078 107.008 12.6328V10.8984H105.875C104.104 10.8984 103.219 11.4167 103.219 12.4531C103.219 12.9062 103.37 13.2604 103.672 13.5156C103.974 13.7708 104.362 13.8984 104.836 13.8984ZM114.109 13.9766C114.625 13.9766 115.076 13.8203 115.461 13.5078C115.846 13.1953 116.06 12.8047 116.102 12.3359H117.469C117.443 12.8203 117.276 13.2812 116.969 13.7188C116.661 14.1562 116.25 14.5052 115.734 14.7656C115.224 15.026 114.682 15.1562 114.109 15.1562C112.958 15.1562 112.042 14.7734 111.359 14.0078C110.682 13.237 110.344 12.1849 110.344 10.8516V10.6094C110.344 9.78646 110.495 9.05469 110.797 8.41406C111.099 7.77344 111.531 7.27604 112.094 6.92188C112.661 6.56771 113.331 6.39062 114.102 6.39062C115.049 6.39062 115.836 6.67448 116.461 7.24219C117.091 7.8099 117.427 8.54688 117.469 9.45312H116.102C116.06 8.90625 115.852 8.45833 115.477 8.10938C115.107 7.75521 114.648 7.57812 114.102 7.57812C113.367 7.57812 112.797 7.84375 112.391 8.375C111.99 8.90104 111.789 9.66406 111.789 10.6641V10.9375C111.789 11.9115 111.99 12.6615 112.391 13.1875C112.792 13.7135 113.365 13.9766 114.109 13.9766ZM121.453 11.0859L120.547 12.0312V15H119.102V3H120.547V10.2578L121.32 9.32812L123.953 6.54688H125.711L122.422 10.0781L126.094 15H124.398L121.453 11.0859Z" fill="#262626"/>
<defs>
<clipPath id="clip0_1565_25447">
<rect width="10.4651" height="10" fill="white" transform="translate(239 26)"/>
</clipPath>
</defs>
</svg>
