<svg width="37" height="37" viewBox="0 0 37 37" fill="none" xmlns="http://www.w3.org/2000/svg">
<circle cx="18.5" cy="18.5" r="18.5" fill="#CA0100"/>
<g clip-path="url(#clip0_1565_25660)">
<path d="M17.6242 24.7673C16.7854 25.606 15.4245 25.606 14.5861 24.7673L9.87907 20.0601C9.04031 19.2217 9.04031 17.8607 9.87907 17.0224C10.7174 16.1836 12.0784 16.1836 12.9171 17.0224L15.7216 19.8265C15.9333 20.0378 16.277 20.0378 16.4891 19.8265L24.0829 12.2326C24.9212 11.3938 26.2822 11.3938 27.1209 12.2326C27.5237 12.6354 27.75 13.1819 27.75 13.7515C27.75 14.321 27.5237 14.8675 27.1209 15.2703L17.6242 24.7673Z" fill="white"/>
</g>
<defs>
<clipPath id="clip0_1565_25660">
<rect width="18.5" height="18.5" fill="white" transform="translate(9.25 9.25)"/>
</clipPath>
</defs>
</svg>
