<svg width="300" height="165" viewBox="0 0 300 165" fill="none" xmlns="http://www.w3.org/2000/svg">
<path d="M116.875 116.619C116.875 115.584 117.08 114.653 117.49 113.826C117.9 112.993 118.477 112.355 119.219 111.912C119.961 111.463 120.814 111.238 121.777 111.238C123.203 111.238 124.359 111.697 125.244 112.615C126.136 113.533 126.618 114.751 126.689 116.268L126.699 116.824C126.699 117.866 126.497 118.797 126.094 119.617C125.697 120.438 125.124 121.072 124.375 121.521C123.633 121.971 122.773 122.195 121.797 122.195C120.306 122.195 119.111 121.701 118.213 120.711C117.321 119.715 116.875 118.39 116.875 116.736V116.619ZM119.248 116.824C119.248 117.911 119.473 118.764 119.922 119.383C120.371 119.995 120.996 120.301 121.797 120.301C122.598 120.301 123.219 119.988 123.662 119.363C124.111 118.738 124.336 117.824 124.336 116.619C124.336 115.551 124.105 114.705 123.643 114.08C123.187 113.455 122.565 113.143 121.777 113.143C121.003 113.143 120.387 113.452 119.932 114.07C119.476 114.682 119.248 115.6 119.248 116.824ZM136.729 113.318H133.301V122H130.928V113.318H127.539V111.434H136.729V113.318ZM149.57 122H147.207V110.584L143.721 111.775V109.773L149.268 107.732H149.57V122ZM155 125.203L153.721 124.441C154.098 123.849 154.355 123.331 154.492 122.889C154.635 122.452 154.71 122.007 154.717 121.551V119.705H156.855L156.846 121.414C156.839 122.104 156.663 122.794 156.318 123.484C155.98 124.181 155.54 124.754 155 125.203ZM165.635 116.053C164.84 116.893 163.913 117.312 162.852 117.312C161.602 117.312 160.605 116.876 159.863 116.004C159.121 115.125 158.75 113.973 158.75 112.547C158.75 111.609 158.939 110.76 159.316 109.998C159.694 109.236 160.231 108.644 160.928 108.221C161.624 107.798 162.432 107.586 163.35 107.586C164.782 107.586 165.918 108.12 166.758 109.188C167.598 110.255 168.018 111.684 168.018 113.475V114.139C168.018 116.704 167.438 118.66 166.279 120.008C165.12 121.355 163.392 122.039 161.094 122.059H160.811V120.096H161.152C162.552 120.076 163.626 119.741 164.375 119.09C165.124 118.432 165.544 117.42 165.635 116.053ZM163.35 115.457C163.825 115.457 164.271 115.32 164.688 115.047C165.104 114.773 165.426 114.396 165.654 113.914V112.986C165.654 111.938 165.439 111.095 165.01 110.457C164.58 109.819 164.023 109.5 163.34 109.5C162.656 109.5 162.109 109.783 161.699 110.35C161.296 110.91 161.094 111.619 161.094 112.479C161.094 113.37 161.299 114.09 161.709 114.637C162.119 115.184 162.666 115.457 163.35 115.457ZM170.176 110.516C170.176 109.656 170.452 108.953 171.006 108.406C171.559 107.853 172.285 107.576 173.184 107.576C174.095 107.576 174.824 107.853 175.371 108.406C175.924 108.953 176.201 109.673 176.201 110.564V111.268C176.201 112.12 175.924 112.82 175.371 113.367C174.824 113.914 174.102 114.188 173.203 114.188C172.324 114.188 171.598 113.921 171.025 113.387C170.459 112.846 170.176 112.12 170.176 111.209V110.516ZM171.836 111.268C171.836 111.717 171.96 112.081 172.207 112.361C172.461 112.635 172.793 112.771 173.203 112.771C173.607 112.771 173.932 112.635 174.18 112.361C174.427 112.081 174.551 111.704 174.551 111.229V110.516C174.551 110.066 174.424 109.702 174.17 109.422C173.923 109.142 173.594 109.002 173.184 109.002C172.773 109.002 172.445 109.145 172.197 109.432C171.956 109.712 171.836 110.083 171.836 110.545V111.268ZM177.012 118.514C177.012 117.641 177.295 116.935 177.861 116.395C178.428 115.854 179.15 115.584 180.029 115.584C180.915 115.584 181.637 115.854 182.197 116.395C182.764 116.935 183.047 117.664 183.047 118.582V119.275C183.047 120.122 182.773 120.822 182.227 121.375C181.686 121.922 180.96 122.195 180.049 122.195C179.137 122.195 178.402 121.925 177.842 121.385C177.288 120.838 177.012 120.118 177.012 119.227V118.514ZM178.672 119.275C178.672 119.718 178.799 120.083 179.053 120.369C179.313 120.649 179.645 120.789 180.049 120.789C180.465 120.789 180.791 120.656 181.025 120.389C181.266 120.115 181.387 119.734 181.387 119.246V118.514C181.387 118.058 181.26 117.693 181.006 117.42C180.752 117.146 180.426 117.01 180.029 117.01C179.626 117.01 179.297 117.146 179.043 117.42C178.796 117.693 178.672 118.071 178.672 118.553V119.275ZM173.691 120.936L172.471 120.232L179.414 109.119L180.635 109.822L173.691 120.936Z" fill="#262626"/>
<path d="M89.7734 148.391C89.6328 149.594 89.1875 150.523 88.4375 151.18C87.6927 151.831 86.7005 152.156 85.4609 152.156C84.1172 152.156 83.0391 151.674 82.2266 150.711C81.4193 149.747 81.0156 148.458 81.0156 146.844V145.75C81.0156 144.693 81.2031 143.763 81.5781 142.961C81.9583 142.159 82.4948 141.544 83.1875 141.117C83.8802 140.685 84.6823 140.469 85.5938 140.469C86.8021 140.469 87.7708 140.807 88.5 141.484C89.2292 142.156 89.6536 143.089 89.7734 144.281H88.2656C88.1354 143.375 87.8516 142.719 87.4141 142.312C86.9818 141.906 86.375 141.703 85.5938 141.703C84.6354 141.703 83.8828 142.057 83.3359 142.766C82.7943 143.474 82.5234 144.482 82.5234 145.789V146.891C82.5234 148.125 82.7812 149.107 83.2969 149.836C83.8125 150.565 84.5339 150.93 85.4609 150.93C86.2943 150.93 86.9323 150.742 87.375 150.367C87.8229 149.987 88.1198 149.328 88.2656 148.391H89.7734ZM97.8828 144.719H95.0469V152H93.6016V144.719H90.8203V143.547H97.8828V144.719ZM104.383 152C104.299 151.833 104.232 151.536 104.18 151.109C103.508 151.807 102.706 152.156 101.773 152.156C100.94 152.156 100.255 151.922 99.7188 151.453C99.1875 150.979 98.9219 150.38 98.9219 149.656C98.9219 148.776 99.2552 148.094 99.9219 147.609C100.594 147.12 101.536 146.875 102.75 146.875H104.156V146.211C104.156 145.706 104.005 145.305 103.703 145.008C103.401 144.706 102.956 144.555 102.367 144.555C101.852 144.555 101.419 144.685 101.07 144.945C100.721 145.206 100.547 145.521 100.547 145.891H99.0938C99.0938 145.469 99.2422 145.062 99.5391 144.672C99.8411 144.276 100.247 143.964 100.758 143.734C101.273 143.505 101.839 143.391 102.453 143.391C103.427 143.391 104.19 143.635 104.742 144.125C105.294 144.609 105.581 145.279 105.602 146.133V150.023C105.602 150.799 105.701 151.417 105.898 151.875V152H104.383ZM101.984 150.898C102.438 150.898 102.867 150.781 103.273 150.547C103.68 150.312 103.974 150.008 104.156 149.633V147.898H103.023C101.253 147.898 100.367 148.417 100.367 149.453C100.367 149.906 100.518 150.26 100.82 150.516C101.122 150.771 101.51 150.898 101.984 150.898ZM108 152V143.547H111.297C112.422 143.547 113.284 143.745 113.883 144.141C114.487 144.531 114.789 145.107 114.789 145.867C114.789 146.258 114.672 146.612 114.438 146.93C114.203 147.242 113.857 147.482 113.398 147.648C113.909 147.768 114.318 148.003 114.625 148.352C114.938 148.701 115.094 149.117 115.094 149.602C115.094 150.378 114.807 150.971 114.234 151.383C113.667 151.794 112.862 152 111.82 152H108ZM109.445 148.289V150.836H111.836C112.44 150.836 112.891 150.724 113.188 150.5C113.49 150.276 113.641 149.961 113.641 149.555C113.641 148.711 113.021 148.289 111.781 148.289H109.445ZM109.445 147.133H111.312C112.667 147.133 113.344 146.737 113.344 145.945C113.344 145.154 112.703 144.745 111.422 144.719H109.445V147.133ZM119.641 148.398H118.586V152H117.133V143.547H118.586V147.125H119.531L122.375 143.547H124.125L120.781 147.609L124.406 152H122.57L119.641 148.398ZM130.867 152C130.784 151.833 130.716 151.536 130.664 151.109C129.992 151.807 129.19 152.156 128.258 152.156C127.424 152.156 126.74 151.922 126.203 151.453C125.672 150.979 125.406 150.38 125.406 149.656C125.406 148.776 125.74 148.094 126.406 147.609C127.078 147.12 128.021 146.875 129.234 146.875H130.641V146.211C130.641 145.706 130.49 145.305 130.188 145.008C129.885 144.706 129.44 144.555 128.852 144.555C128.336 144.555 127.904 144.685 127.555 144.945C127.206 145.206 127.031 145.521 127.031 145.891H125.578C125.578 145.469 125.727 145.062 126.023 144.672C126.326 144.276 126.732 143.964 127.242 143.734C127.758 143.505 128.323 143.391 128.938 143.391C129.911 143.391 130.674 143.635 131.227 144.125C131.779 144.609 132.065 145.279 132.086 146.133V150.023C132.086 150.799 132.185 151.417 132.383 151.875V152H130.867ZM128.469 150.898C128.922 150.898 129.352 150.781 129.758 150.547C130.164 150.312 130.458 150.008 130.641 149.633V147.898H129.508C127.737 147.898 126.852 148.417 126.852 149.453C126.852 149.906 127.003 150.26 127.305 150.516C127.607 150.771 127.995 150.898 128.469 150.898ZM145.234 152H143.789V144.742H139.898V152H138.445V143.547H145.234V152ZM147.172 147.695C147.172 146.867 147.333 146.122 147.656 145.461C147.984 144.799 148.438 144.289 149.016 143.93C149.599 143.57 150.263 143.391 151.008 143.391C152.159 143.391 153.089 143.789 153.797 144.586C154.51 145.383 154.867 146.443 154.867 147.766V147.867C154.867 148.69 154.708 149.43 154.391 150.086C154.078 150.737 153.628 151.245 153.039 151.609C152.456 151.974 151.784 152.156 151.023 152.156C149.878 152.156 148.948 151.758 148.234 150.961C147.526 150.164 147.172 149.109 147.172 147.797V147.695ZM148.625 147.867C148.625 148.805 148.841 149.557 149.273 150.125C149.711 150.693 150.294 150.977 151.023 150.977C151.758 150.977 152.341 150.69 152.773 150.117C153.206 149.539 153.422 148.732 153.422 147.695C153.422 146.768 153.201 146.018 152.758 145.445C152.32 144.867 151.737 144.578 151.008 144.578C150.294 144.578 149.719 144.862 149.281 145.43C148.844 145.997 148.625 146.81 148.625 147.867ZM163.281 148.398H162.227V152H160.773V143.547H162.227V147.125H163.172L166.016 143.547H167.766L164.422 147.609L168.047 152H166.211L163.281 148.398ZM176.43 147.867C176.43 149.154 176.135 150.19 175.547 150.977C174.958 151.763 174.161 152.156 173.156 152.156C172.13 152.156 171.323 151.831 170.734 151.18V155.25H169.289V143.547H170.609L170.68 144.484C171.268 143.755 172.086 143.391 173.133 143.391C174.148 143.391 174.951 143.773 175.539 144.539C176.133 145.305 176.43 146.37 176.43 147.734V147.867ZM174.984 147.703C174.984 146.75 174.781 145.997 174.375 145.445C173.969 144.893 173.411 144.617 172.703 144.617C171.828 144.617 171.172 145.005 170.734 145.781V149.82C171.167 150.591 171.828 150.977 172.719 150.977C173.411 150.977 173.961 150.703 174.367 150.156C174.779 149.604 174.984 148.786 174.984 147.703ZM181.781 152.156C180.635 152.156 179.703 151.781 178.984 151.031C178.266 150.276 177.906 149.268 177.906 148.008V147.742C177.906 146.904 178.065 146.156 178.383 145.5C178.706 144.839 179.154 144.323 179.727 143.953C180.305 143.578 180.93 143.391 181.602 143.391C182.701 143.391 183.555 143.753 184.164 144.477C184.773 145.201 185.078 146.237 185.078 147.586V148.188H179.352C179.372 149.021 179.615 149.695 180.078 150.211C180.547 150.721 181.141 150.977 181.859 150.977C182.37 150.977 182.802 150.872 183.156 150.664C183.51 150.456 183.82 150.18 184.086 149.836L184.969 150.523C184.26 151.612 183.198 152.156 181.781 152.156ZM181.602 144.578C181.018 144.578 180.529 144.792 180.133 145.219C179.737 145.641 179.492 146.234 179.398 147H183.633V146.891C183.591 146.156 183.393 145.589 183.039 145.188C182.685 144.781 182.206 144.578 181.602 144.578ZM186.688 150.82L187.188 150.203C187.75 149.474 188.07 148.38 188.148 146.922L188.281 143.547H193.727V150.82H194.812V154.484H193.367V152H187.469V154.484H186.023L186.031 150.82H186.688ZM188.398 150.82H192.281V144.883H189.68L189.594 146.898C189.505 148.581 189.107 149.888 188.398 150.82ZM201.883 143.547H203.328V152H201.883V145.836L197.984 152H196.539V143.547H197.984V149.719L201.883 143.547ZM211.93 144.719H209.094V152H207.648V144.719H204.867V143.547H211.93V144.719ZM216.195 149.883L218.164 143.547H219.711L216.312 153.305C215.786 154.711 214.951 155.414 213.805 155.414L213.531 155.391L212.992 155.289V154.117L213.383 154.148C213.872 154.148 214.253 154.049 214.523 153.852C214.799 153.654 215.026 153.292 215.203 152.766L215.523 151.906L212.508 143.547H214.086L216.195 149.883Z" fill="#737373"/>
<path d="M134.009 33.3864V33.4312C133.83 36.7888 135.71 39.9226 138.799 41.4448H138.844C139.918 41.982 140.814 42.8326 141.396 43.9071V43.9518C142.963 46.9066 146.186 48.7421 149.633 48.563H149.678C150.932 48.4735 152.185 48.8316 153.215 49.5032C156.125 51.3387 159.841 51.3387 162.751 49.5032C163.825 48.8316 165.034 48.5183 166.287 48.563H166.332C169.779 48.7421 173.003 46.9514 174.57 43.9518C175.152 42.8774 176.047 42.0268 177.121 41.4895H177.166C180.255 39.9674 182.135 36.8336 181.956 33.4759V33.4312C181.912 32.2672 182.225 31.1032 182.897 30.1183C184.822 27.2978 184.822 23.582 182.897 20.8063C182.225 19.8214 181.912 18.6574 181.956 17.4934V17.4487C182.135 14.091 180.255 10.9572 177.166 9.43504H177.121C176.047 8.89781 175.152 8.0472 174.57 6.97275V6.92798C173.003 3.97324 169.779 2.13771 166.332 2.31679H166.287C165.034 2.40633 163.78 2.04818 162.751 1.37664C159.841 -0.458881 156.125 -0.458881 153.215 1.37664C152.14 2.04818 150.932 2.36156 149.678 2.31679H149.633C146.186 2.13771 142.963 3.92847 141.396 6.92798C140.814 8.00244 139.918 8.85304 138.844 9.39027H138.799C135.71 10.9124 133.83 14.0462 134.009 17.4039V17.4487C134.054 18.6127 133.74 19.7766 133.069 20.7616C131.144 23.582 131.144 27.2978 133.069 30.0735C133.74 31.0136 134.054 32.1776 134.009 33.3864ZM135.442 22.3732C136.471 20.8511 136.964 19.0603 136.874 17.2248V17.1801C136.785 14.9416 138.038 12.8822 140.053 11.9421H140.098C141.754 11.1363 143.097 9.83796 143.948 8.22628V8.18151C144.977 6.21168 147.171 5.00292 149.454 5.13723H149.499C151.334 5.22677 153.17 4.77908 154.737 3.79416C156.707 2.54063 159.214 2.54063 161.184 3.79416C162.751 4.77908 164.586 5.27153 166.422 5.13723H166.466C168.794 5.00292 170.943 6.21168 171.973 8.18151V8.22628C172.824 9.83796 174.167 11.1363 175.823 11.9421H175.868C177.927 12.927 179.136 14.9864 179.046 17.1801V17.2248C178.957 19.0603 179.449 20.8511 180.479 22.3732C181.733 24.2088 181.733 26.5815 180.479 28.417C179.449 29.9392 178.957 31.7299 179.046 33.5655V33.6102C179.181 35.8039 177.927 37.8633 175.868 38.8482C174.211 39.654 172.868 40.9523 172.018 42.564C170.988 44.5338 168.794 45.7426 166.511 45.6083H166.466C164.631 45.5187 162.795 45.9664 161.228 46.9514C159.259 48.2049 156.752 48.2049 154.782 46.9514C153.349 46.056 151.693 45.5635 150.036 45.5635C149.857 45.5635 149.723 45.5635 149.544 45.5635H149.499C147.216 45.6978 145.067 44.5338 143.992 42.5192V42.4745C143.142 40.8628 141.799 39.5645 140.142 38.7586H140.098C138.038 37.7737 136.829 35.7144 136.919 33.5207V33.4759C137.008 31.6404 136.516 29.8496 135.486 28.3275C134.188 26.5815 134.188 24.2088 135.442 22.3732Z" fill="#CA0100"/>
<path d="M163.248 31.1024C163.337 31.4158 163.517 31.6844 163.785 31.8187C163.964 31.953 164.188 31.9978 164.412 31.9978C164.815 31.9978 165.173 31.774 165.397 31.4606L173.679 18.0747C173.903 17.7165 173.903 17.2688 173.724 16.9107C173.545 16.5525 173.142 16.2839 172.739 16.2839H172.694C172.291 16.2839 171.933 16.5078 171.709 16.8212L163.382 30.2071C163.203 30.4757 163.158 30.7891 163.248 31.1024Z" fill="#262626"/>
<path d="M164.73 24.6114C166.7 24.6114 168.311 22.8206 168.311 20.5822C168.311 18.3885 166.7 16.553 164.73 16.553C162.76 16.553 161.148 18.3437 161.148 20.5822C161.148 22.8206 162.76 24.6114 164.73 24.6114ZM164.73 18.9257C165.401 18.9257 165.983 19.6868 165.983 20.6269C165.983 21.5223 165.401 22.3282 164.73 22.3282C164.058 22.3282 163.476 21.5671 163.476 20.6269C163.476 19.6868 164.058 18.9257 164.73 18.9257Z" fill="#262626"/>
<path d="M145.182 31.5455H142.685V19.2334L139 20.5183V18.3592L144.862 16.158H145.182V31.5455Z" fill="#262626"/>
<path d="M146.854 35L145.502 34.1785C145.901 33.5395 146.173 32.9813 146.318 32.5039C146.469 32.0334 146.548 31.5525 146.555 31.061V29.0704H148.815L148.805 30.9135C148.798 31.6578 148.612 32.4021 148.248 33.1463C147.89 33.8976 147.425 34.5155 146.854 35Z" fill="#262626"/>
<path d="M156.482 25.1314C155.642 26.0371 154.662 26.49 153.54 26.49C152.219 26.49 151.166 26.0196 150.382 25.0787C149.598 24.1308 149.205 22.888 149.205 21.3503C149.205 20.3392 149.405 19.4229 149.804 18.6014C150.203 17.7799 150.771 17.141 151.507 16.6846C152.243 16.2282 153.096 16 154.067 16C155.58 16 156.781 16.5758 157.669 17.7273C158.556 18.8788 159 20.42 159 22.3509V23.0671C159 25.8335 158.388 27.9435 157.163 29.3969C155.938 30.8503 154.111 31.5876 151.682 31.6086H151.383V29.4917H151.744C153.224 29.4706 154.359 29.109 155.15 28.4069C155.942 27.6977 156.385 26.6059 156.482 25.1314ZM154.067 24.4889C154.569 24.4889 155.04 24.3415 155.481 24.0466C155.921 23.7517 156.261 23.3444 156.502 22.8248V21.8243C156.502 20.6938 156.275 19.7846 155.821 19.0965C155.367 18.4084 154.779 18.0643 154.056 18.0643C153.334 18.0643 152.756 18.3697 152.322 18.9806C151.896 19.5844 151.682 20.3498 151.682 21.2766C151.682 22.2385 151.899 23.0144 152.333 23.6042C152.766 24.194 153.344 24.4889 154.067 24.4889Z" fill="#262626"/>
<path d="M168.75 27.6557C168.75 29.8493 170.362 31.6849 172.332 31.6849C174.301 31.6849 175.913 29.8941 175.913 27.6557C175.913 25.462 174.301 23.6265 172.332 23.6265C170.362 23.6265 168.75 25.462 168.75 27.6557ZM172.332 29.3121C171.66 29.3121 171.078 28.551 171.078 27.6109C171.078 26.7155 171.66 25.9097 172.332 25.9097C173.003 25.9097 173.585 26.6707 173.585 27.6109C173.585 28.551 173.003 29.3121 172.332 29.3121Z" fill="#262626"/>
<path d="M188.495 56.6218C186.57 53.2193 182.317 51.921 178.87 53.667L167.543 59.0393C165.976 56.1293 162.977 54.2938 159.664 54.2043L149.188 53.9356C147.531 53.8909 145.92 53.488 144.442 52.7269L143.368 52.1897C137.906 49.3692 131.415 49.3692 125.998 52.1897L126.042 49.7721C126.042 48.9663 125.416 48.2948 124.655 48.2948L113.194 47.8918C112.388 47.8918 111.716 48.5186 111.716 49.2797L111 74.4846C111 75.2904 111.627 75.9619 112.388 75.9619L123.849 76.2753H123.893C124.655 76.2753 125.326 75.6485 125.326 74.8875L125.371 73.6787L128.37 72.067C129.534 71.4403 130.922 71.306 132.176 71.6641L149.949 76.6335C149.994 76.6335 149.994 76.6335 150.038 76.6782C151.337 76.9468 152.635 77.0812 153.933 77.0812C156.709 77.0812 159.485 76.4992 161.992 75.3352C162.037 75.2904 162.126 75.2904 162.171 75.2456L187.958 58.5468C188.629 58.1439 188.853 57.2933 188.495 56.6218ZM122.506 73.3653L113.91 73.1415L114.537 50.8914L123.132 51.1152L122.506 73.3653ZM160.738 72.7386C157.604 74.1712 154.068 74.5293 150.71 73.8578L132.982 68.8884C130.967 68.3064 128.863 68.5751 127.027 69.56L125.505 70.3658L125.908 55.5473C130.743 52.324 136.921 52.0106 142.07 54.6967L143.144 55.2339C145.024 56.1741 147.039 56.7113 149.143 56.8009L159.619 57.0695C162.574 57.159 165.036 59.2631 165.663 62.1283L150.083 61.6807C149.277 61.6807 148.606 62.3074 148.606 63.0685C148.606 63.8296 149.233 64.5459 149.994 64.5459L167.185 65.0383H167.23C167.991 65.0383 168.662 64.4116 168.662 63.6505C168.662 63.0237 168.618 62.397 168.528 61.7702L180.123 56.2636H180.168C181.824 55.413 183.794 55.7264 185.182 56.9799L160.738 72.7386Z" fill="#262626"/>
</svg>
