<svg width="40" height="14" viewBox="0 0 40 14" fill="none" xmlns="http://www.w3.org/2000/svg">
<path d="M11.3183 1.84157H2.01484L2.68505 0H11.9885L11.3183 1.84157ZM10.9832 2.76235H1.67554L1.00532 4.60391H10.3088L10.9832 2.76235ZM9.97784 5.51632H0.670216L0 7.35789H9.29506L9.97784 5.51632Z" fill="#009FDF"/>
<path d="M33.4853 11.9658H35.1608C35.399 11.9942 35.6404 11.9637 35.864 11.8768C36.0875 11.7899 36.2862 11.6495 36.4426 11.4678C36.6724 11.1672 36.7882 10.795 36.7693 10.4172C36.785 10.1768 36.7409 9.93632 36.6407 9.71719C36.5405 9.49806 36.3876 9.30717 36.1954 9.16162C35.8844 8.95828 35.5145 8.86405 35.144 8.89376H33.4853V11.9658ZM31.2861 13.8199V2.76218H38.4867L37.8542 4.6163H33.4853V7.06475H35.2655C36.7023 7.06475 37.4479 7.40795 37.9631 7.84741C38.3315 8.17334 38.6212 8.57837 38.8106 9.03213C38.9999 9.4859 39.084 9.97661 39.0564 10.4675C39.0847 10.996 38.9804 11.5233 38.7529 12.0013C38.5253 12.4794 38.1819 12.893 37.7537 13.2047C37.0625 13.6818 36.3379 13.8158 34.8634 13.8158L31.2861 13.8199ZM24.9107 13.8199V4.61212H21.7104V2.76218H30.595L29.9624 4.6163H27.1308V13.8241L24.9107 13.8199ZM16.0429 7.19031H17.2996C17.5566 7.20785 17.8148 7.18812 18.0661 7.13171C18.3275 7.04828 18.5528 6.87859 18.705 6.65045C18.8572 6.42232 18.9273 6.14928 18.9039 5.8761C18.9387 5.60466 18.8727 5.32986 18.7183 5.10383C18.5639 4.87779 18.3318 4.71623 18.0661 4.64979C17.7917 4.58613 17.5097 4.56077 17.2283 4.57445H16.0429V7.19031ZM16.0429 9.10303V12.0035H17.576C17.9985 12.0517 18.4233 11.9348 18.7615 11.677C18.9173 11.5328 19.0394 11.356 19.119 11.1592C19.1986 10.9624 19.2339 10.7505 19.2222 10.5386C19.2289 10.2 19.1261 9.86827 18.929 9.59271C18.6023 9.17418 18.2002 9.09465 17.5132 9.09465L16.0429 9.10303ZM19.5867 7.93531V7.97297C19.9601 8.11663 20.3091 8.3171 20.6213 8.5673C20.9369 8.82896 21.1862 9.16123 21.3493 9.53717C21.5123 9.91312 21.5844 10.3222 21.5596 10.7311C21.5596 12.2421 20.7553 13.3344 19.4359 13.6609C18.9099 13.7894 18.3682 13.8415 17.8273 13.8158H13.8438V2.76218H17.3875C17.9504 2.74162 18.5135 2.79367 19.0631 2.91704C20.3448 3.26024 21.1868 4.14336 21.1868 5.53709C21.1973 5.86937 21.1399 6.20031 21.0182 6.50973C20.8965 6.81914 20.713 7.10055 20.4789 7.3368C20.2303 7.58902 19.9342 7.78959 19.6076 7.92693L19.5867 7.93531Z" fill="#0A2973"/>
</svg>
