<svg width="79" height="79" viewBox="0 0 79 79" fill="none" xmlns="http://www.w3.org/2000/svg">
<circle cx="39.5" cy="39.5" r="39.5" fill="white"/>
<path d="M64.2876 34.2684H51.3929C51.1712 34.2684 50.9899 34.4497 50.9899 34.6713V37.0891C50.9899 37.3107 51.1712 37.492 51.3929 37.492H64.2876C64.5092 37.492 64.6905 37.3107 64.6905 37.0891V34.6713C64.6905 34.4497 64.5092 34.2684 64.2876 34.2684ZM57.538 41.1187H51.3929C51.1712 41.1187 50.9899 41.3 50.9899 41.5216V43.9394C50.9899 44.161 51.1712 44.3424 51.3929 44.3424H57.538C57.7596 44.3424 57.941 44.161 57.941 43.9394V41.5216C57.941 41.3 57.7596 41.1187 57.538 41.1187ZM40.7295 29.7603H38.5485C38.2362 29.7603 37.9844 30.0121 37.9844 30.3244V42.8162C37.9844 42.9975 38.07 43.1637 38.2161 43.2695L45.7162 48.7397C45.968 48.921 46.3206 48.8706 46.5019 48.6188L47.7964 46.8508V46.8458C47.9778 46.5939 47.9224 46.2413 47.6705 46.06L41.2886 41.4461V30.3244C41.2937 30.0121 41.0368 29.7603 40.7295 29.7603Z" fill="#262626"/>
<path d="M57.2237 47.4603H54.3123C54.0302 47.4603 53.7632 47.6064 53.6121 47.8482C52.9724 48.8606 52.227 49.7975 51.3707 50.6538C49.8948 52.1296 48.1772 53.2881 46.2682 54.094C44.2886 54.9302 42.1882 55.3533 40.0223 55.3533C37.8514 55.3533 35.7509 54.9302 33.7764 54.094C31.8674 53.2881 30.1498 52.1296 28.674 50.6538C27.1981 49.1779 26.0396 47.4603 25.2337 45.5513C24.3975 43.5768 23.9744 41.4764 23.9744 39.3054C23.9744 37.1345 24.3975 35.0391 25.2337 33.0595C26.0396 31.1505 27.1981 29.4329 28.674 27.9571C30.1498 26.4812 31.8674 25.3227 33.7764 24.5168C35.7509 23.6807 37.8564 23.2575 40.0223 23.2575C42.1933 23.2575 44.2937 23.6807 46.2682 24.5168C48.1772 25.3227 49.8948 26.4812 51.3707 27.9571C52.227 28.8134 52.9724 29.7502 53.6121 30.7627C53.7632 31.0044 54.0302 31.1505 54.3123 31.1505H57.2237C57.5712 31.1505 57.7928 30.7879 57.6367 30.4806C54.3526 23.9476 47.6937 19.7014 40.259 19.6158C29.3741 19.4798 20.3327 28.3902 20.3125 39.2651C20.2924 50.1602 29.1222 59.0001 40.0173 59.0001C47.5476 59.0001 54.3173 54.7388 57.6367 48.1302C57.7928 47.823 57.5662 47.4603 57.2237 47.4603Z" fill="#262626"/>
</svg>
