<svg width="300" height="163" viewBox="0 0 300 163" fill="none" xmlns="http://www.w3.org/2000/svg">
<path d="M127.246 116.619C127.246 115.584 127.451 114.653 127.861 113.826C128.271 112.993 128.848 112.355 129.59 111.912C130.332 111.463 131.185 111.238 132.148 111.238C133.574 111.238 134.73 111.697 135.615 112.615C136.507 113.533 136.989 114.751 137.061 116.268L137.07 116.824C137.07 117.866 136.868 118.797 136.465 119.617C136.068 120.438 135.495 121.072 134.746 121.521C134.004 121.971 133.145 122.195 132.168 122.195C130.677 122.195 129.482 121.701 128.584 120.711C127.692 119.715 127.246 118.39 127.246 116.736V116.619ZM129.619 116.824C129.619 117.911 129.844 118.764 130.293 119.383C130.742 119.995 131.367 120.301 132.168 120.301C132.969 120.301 133.59 119.988 134.033 119.363C134.482 118.738 134.707 117.824 134.707 116.619C134.707 115.551 134.476 114.705 134.014 114.08C133.558 113.455 132.936 113.143 132.148 113.143C131.374 113.143 130.758 113.452 130.303 114.07C129.847 114.682 129.619 115.6 129.619 116.824ZM147.1 113.318H143.672V122H141.299V113.318H137.91V111.434H147.1V113.318ZM162.783 116.014C162.783 118.058 162.399 119.601 161.631 120.643C160.869 121.678 159.707 122.195 158.145 122.195C156.608 122.195 155.449 121.691 154.668 120.682C153.893 119.666 153.496 118.165 153.477 116.18V113.719C153.477 111.674 153.857 110.141 154.619 109.119C155.387 108.097 156.556 107.586 158.125 107.586C159.681 107.586 160.84 108.084 161.602 109.08C162.37 110.076 162.764 111.567 162.783 113.553V116.014ZM160.41 113.357C160.41 112.023 160.228 111.046 159.863 110.428C159.499 109.803 158.919 109.49 158.125 109.49C157.35 109.49 156.781 109.786 156.416 110.379C156.051 110.965 155.859 111.883 155.84 113.133V116.355C155.84 117.684 156.025 118.673 156.396 119.324C156.768 119.975 157.35 120.301 158.145 120.301C158.906 120.301 159.469 120.001 159.834 119.402C160.199 118.797 160.391 117.853 160.41 116.57V113.357ZM164.785 110.516C164.785 109.656 165.062 108.953 165.615 108.406C166.169 107.853 166.895 107.576 167.793 107.576C168.704 107.576 169.434 107.853 169.98 108.406C170.534 108.953 170.811 109.673 170.811 110.564V111.268C170.811 112.12 170.534 112.82 169.98 113.367C169.434 113.914 168.711 114.188 167.812 114.188C166.934 114.188 166.208 113.921 165.635 113.387C165.068 112.846 164.785 112.12 164.785 111.209V110.516ZM166.445 111.268C166.445 111.717 166.569 112.081 166.816 112.361C167.07 112.635 167.402 112.771 167.812 112.771C168.216 112.771 168.542 112.635 168.789 112.361C169.036 112.081 169.16 111.704 169.16 111.229V110.516C169.16 110.066 169.033 109.702 168.779 109.422C168.532 109.142 168.203 109.002 167.793 109.002C167.383 109.002 167.054 109.145 166.807 109.432C166.566 109.712 166.445 110.083 166.445 110.545V111.268ZM171.621 118.514C171.621 117.641 171.904 116.935 172.471 116.395C173.037 115.854 173.76 115.584 174.639 115.584C175.524 115.584 176.247 115.854 176.807 116.395C177.373 116.935 177.656 117.664 177.656 118.582V119.275C177.656 120.122 177.383 120.822 176.836 121.375C176.296 121.922 175.57 122.195 174.658 122.195C173.747 122.195 173.011 121.925 172.451 121.385C171.898 120.838 171.621 120.118 171.621 119.227V118.514ZM173.281 119.275C173.281 119.718 173.408 120.083 173.662 120.369C173.923 120.649 174.255 120.789 174.658 120.789C175.075 120.789 175.4 120.656 175.635 120.389C175.876 120.115 175.996 119.734 175.996 119.246V118.514C175.996 118.058 175.869 117.693 175.615 117.42C175.361 117.146 175.036 117.01 174.639 117.01C174.235 117.01 173.906 117.146 173.652 117.42C173.405 117.693 173.281 118.071 173.281 118.553V119.275ZM168.301 120.936L167.08 120.232L174.023 109.119L175.244 109.822L168.301 120.936Z" fill="#262626"/>
<path d="M70.3594 152H68.8516V141.859H63.2422V152H61.7422V140.625H70.3594V152ZM76.375 152.156C75.2292 152.156 74.2969 151.781 73.5781 151.031C72.8594 150.276 72.5 149.268 72.5 148.008V147.742C72.5 146.904 72.6589 146.156 72.9766 145.5C73.2995 144.839 73.7474 144.323 74.3203 143.953C74.8984 143.578 75.5234 143.391 76.1953 143.391C77.2943 143.391 78.1484 143.753 78.7578 144.477C79.3672 145.201 79.6719 146.237 79.6719 147.586V148.188H73.9453C73.9661 149.021 74.2083 149.695 74.6719 150.211C75.1406 150.721 75.7344 150.977 76.4531 150.977C76.9635 150.977 77.3958 150.872 77.75 150.664C78.1042 150.456 78.4141 150.18 78.6797 149.836L79.5625 150.523C78.8542 151.612 77.7917 152.156 76.375 152.156ZM76.1953 144.578C75.612 144.578 75.1224 144.792 74.7266 145.219C74.3307 145.641 74.0859 146.234 73.9922 147H78.2266V146.891C78.1849 146.156 77.987 145.589 77.6328 145.188C77.2786 144.781 76.7995 144.578 76.1953 144.578ZM88.4922 147.867C88.4922 149.154 88.1979 150.19 87.6094 150.977C87.0208 151.763 86.224 152.156 85.2188 152.156C84.1927 152.156 83.3854 151.831 82.7969 151.18V155.25H81.3516V143.547H82.6719L82.7422 144.484C83.3307 143.755 84.1484 143.391 85.1953 143.391C86.2109 143.391 87.013 143.773 87.6016 144.539C88.1953 145.305 88.4922 146.37 88.4922 147.734V147.867ZM87.0469 147.703C87.0469 146.75 86.8438 145.997 86.4375 145.445C86.0312 144.893 85.474 144.617 84.7656 144.617C83.8906 144.617 83.2344 145.005 82.7969 145.781V149.82C83.2292 150.591 83.8906 150.977 84.7812 150.977C85.474 150.977 86.0234 150.703 86.4297 150.156C86.8411 149.604 87.0469 148.786 87.0469 147.703ZM90.4688 152V143.547H93.7656C94.8906 143.547 95.7526 143.745 96.3516 144.141C96.9557 144.531 97.2578 145.107 97.2578 145.867C97.2578 146.258 97.1406 146.612 96.9062 146.93C96.6719 147.242 96.3255 147.482 95.8672 147.648C96.3776 147.768 96.7865 148.003 97.0938 148.352C97.4062 148.701 97.5625 149.117 97.5625 149.602C97.5625 150.378 97.276 150.971 96.7031 151.383C96.1354 151.794 95.3307 152 94.2891 152H90.4688ZM91.9141 148.289V150.836H94.3047C94.9089 150.836 95.3594 150.724 95.6562 150.5C95.9583 150.276 96.1094 149.961 96.1094 149.555C96.1094 148.711 95.4896 148.289 94.25 148.289H91.9141ZM91.9141 147.133H93.7812C95.1354 147.133 95.8125 146.737 95.8125 145.945C95.8125 145.154 95.1719 144.745 93.8906 144.719H91.9141V147.133ZM99.0938 147.695C99.0938 146.867 99.2552 146.122 99.5781 145.461C99.9062 144.799 100.359 144.289 100.938 143.93C101.521 143.57 102.185 143.391 102.93 143.391C104.081 143.391 105.01 143.789 105.719 144.586C106.432 145.383 106.789 146.443 106.789 147.766V147.867C106.789 148.69 106.63 149.43 106.312 150.086C106 150.737 105.549 151.245 104.961 151.609C104.378 151.974 103.706 152.156 102.945 152.156C101.799 152.156 100.87 151.758 100.156 150.961C99.4479 150.164 99.0938 149.109 99.0938 147.797V147.695ZM100.547 147.867C100.547 148.805 100.763 149.557 101.195 150.125C101.633 150.693 102.216 150.977 102.945 150.977C103.68 150.977 104.263 150.69 104.695 150.117C105.128 149.539 105.344 148.732 105.344 147.695C105.344 146.768 105.122 146.018 104.68 145.445C104.242 144.867 103.659 144.578 102.93 144.578C102.216 144.578 101.641 144.862 101.203 145.43C100.766 145.997 100.547 146.81 100.547 147.867ZM115.508 152H114.062V148.391H110.18V152H108.727V143.547H110.18V147.211H114.062V143.547H115.508V152ZM123.055 152C122.971 151.833 122.904 151.536 122.852 151.109C122.18 151.807 121.378 152.156 120.445 152.156C119.612 152.156 118.927 151.922 118.391 151.453C117.859 150.979 117.594 150.38 117.594 149.656C117.594 148.776 117.927 148.094 118.594 147.609C119.266 147.12 120.208 146.875 121.422 146.875H122.828V146.211C122.828 145.706 122.677 145.305 122.375 145.008C122.073 144.706 121.628 144.555 121.039 144.555C120.523 144.555 120.091 144.685 119.742 144.945C119.393 145.206 119.219 145.521 119.219 145.891H117.766C117.766 145.469 117.914 145.062 118.211 144.672C118.513 144.276 118.919 143.964 119.43 143.734C119.945 143.505 120.51 143.391 121.125 143.391C122.099 143.391 122.862 143.635 123.414 144.125C123.966 144.609 124.253 145.279 124.273 146.133V150.023C124.273 150.799 124.372 151.417 124.57 151.875V152H123.055ZM120.656 150.898C121.109 150.898 121.539 150.781 121.945 150.547C122.352 150.312 122.646 150.008 122.828 149.633V147.898H121.695C119.924 147.898 119.039 148.417 119.039 149.453C119.039 149.906 119.19 150.26 119.492 150.516C119.794 150.771 120.182 150.898 120.656 150.898ZM132.922 152H131.469V148.938C130.833 149.104 130.182 149.188 129.516 149.188C128.458 149.188 127.651 148.917 127.094 148.375C126.542 147.833 126.26 147.062 126.25 146.062V143.539H127.695V146.109C127.721 147.37 128.328 148 129.516 148C130.182 148 130.833 147.917 131.469 147.75V143.547H132.922V152ZM140.461 152C140.378 151.833 140.31 151.536 140.258 151.109C139.586 151.807 138.784 152.156 137.852 152.156C137.018 152.156 136.333 151.922 135.797 151.453C135.266 150.979 135 150.38 135 149.656C135 148.776 135.333 148.094 136 147.609C136.672 147.12 137.615 146.875 138.828 146.875H140.234V146.211C140.234 145.706 140.083 145.305 139.781 145.008C139.479 144.706 139.034 144.555 138.445 144.555C137.93 144.555 137.497 144.685 137.148 144.945C136.799 145.206 136.625 145.521 136.625 145.891H135.172C135.172 145.469 135.32 145.062 135.617 144.672C135.919 144.276 136.326 143.964 136.836 143.734C137.352 143.505 137.917 143.391 138.531 143.391C139.505 143.391 140.268 143.635 140.82 144.125C141.372 144.609 141.659 145.279 141.68 146.133V150.023C141.68 150.799 141.779 151.417 141.977 151.875V152H140.461ZM138.062 150.898C138.516 150.898 138.945 150.781 139.352 150.547C139.758 150.312 140.052 150.008 140.234 149.633V147.898H139.102C137.331 147.898 136.445 148.417 136.445 149.453C136.445 149.906 136.596 150.26 136.898 150.516C137.201 150.771 137.589 150.898 138.062 150.898ZM150.875 143.547V152H149.422V144.742H146.547L146.375 147.906C146.281 149.359 146.036 150.398 145.641 151.023C145.25 151.648 144.628 151.974 143.773 152H143.195V150.727L143.609 150.695C144.078 150.643 144.414 150.372 144.617 149.883C144.82 149.393 144.951 148.487 145.008 147.164L145.164 143.547H150.875ZM154.773 146.461H156.969C157.927 146.471 158.685 146.721 159.242 147.211C159.799 147.701 160.078 148.365 160.078 149.203C160.078 150.047 159.792 150.724 159.219 151.234C158.646 151.745 157.875 152 156.906 152H153.328V143.547H154.773V146.461ZM154.773 147.641V150.82H156.922C157.464 150.82 157.883 150.682 158.18 150.406C158.477 150.125 158.625 149.742 158.625 149.258C158.625 148.789 158.479 148.406 158.188 148.109C157.901 147.807 157.497 147.651 156.977 147.641H154.773ZM168.789 152H167.344V148.391H163.461V152H162.008V143.547H163.461V147.211H167.344V143.547H168.789V152ZM172.695 146.461H174.891C175.849 146.471 176.607 146.721 177.164 147.211C177.721 147.701 178 148.365 178 149.203C178 150.047 177.714 150.724 177.141 151.234C176.568 151.745 175.797 152 174.828 152H171.25V143.547H172.695V146.461ZM181.016 152H179.562V143.547H181.016V152ZM172.695 147.641V150.82H174.844C175.385 150.82 175.805 150.682 176.102 150.406C176.398 150.125 176.547 149.742 176.547 149.258C176.547 148.789 176.401 148.406 176.109 148.109C175.823 147.807 175.419 147.651 174.898 147.641H172.695ZM189.008 143.547H190.453V152H189.008V145.836L185.109 152H183.664V143.547H185.109V149.719L189.008 143.547ZM189.398 140.469C189.398 141.099 189.182 141.607 188.75 141.992C188.323 142.372 187.76 142.562 187.062 142.562C186.365 142.562 185.799 142.37 185.367 141.984C184.935 141.599 184.719 141.094 184.719 140.469H185.898C185.898 140.833 185.997 141.12 186.195 141.328C186.393 141.531 186.682 141.633 187.062 141.633C187.427 141.633 187.711 141.531 187.914 141.328C188.122 141.125 188.227 140.839 188.227 140.469H189.398ZM196.875 152V143.547H200.172C201.297 143.547 202.159 143.745 202.758 144.141C203.362 144.531 203.664 145.107 203.664 145.867C203.664 146.258 203.547 146.612 203.312 146.93C203.078 147.242 202.732 147.482 202.273 147.648C202.784 147.768 203.193 148.003 203.5 148.352C203.812 148.701 203.969 149.117 203.969 149.602C203.969 150.378 203.682 150.971 203.109 151.383C202.542 151.794 201.737 152 200.695 152H196.875ZM198.32 148.289V150.836H200.711C201.315 150.836 201.766 150.724 202.062 150.5C202.365 150.276 202.516 149.961 202.516 149.555C202.516 148.711 201.896 148.289 200.656 148.289H198.32ZM198.32 147.133H200.188C201.542 147.133 202.219 146.737 202.219 145.945C202.219 145.154 201.578 144.745 200.297 144.719H198.32V147.133ZM210.531 145.859C210.531 145.464 210.38 145.151 210.078 144.922C209.776 144.688 209.362 144.57 208.836 144.57C208.326 144.57 207.898 144.703 207.555 144.969C207.216 145.234 207.047 145.547 207.047 145.906H205.609C205.609 145.172 205.917 144.57 206.531 144.102C207.146 143.633 207.914 143.398 208.836 143.398C209.826 143.398 210.596 143.612 211.148 144.039C211.701 144.461 211.977 145.065 211.977 145.852C211.977 146.232 211.862 146.581 211.633 146.898C211.404 147.216 211.078 147.469 210.656 147.656C211.641 147.99 212.133 148.646 212.133 149.625C212.133 150.401 211.833 151.016 211.234 151.469C210.635 151.922 209.836 152.148 208.836 152.148C207.862 152.148 207.057 151.911 206.422 151.438C205.792 150.958 205.477 150.312 205.477 149.5H206.914C206.914 149.911 207.096 150.266 207.461 150.562C207.831 150.854 208.289 151 208.836 151C209.388 151 209.833 150.872 210.172 150.617C210.51 150.362 210.68 150.031 210.68 149.625C210.68 149.151 210.536 148.812 210.25 148.609C209.969 148.401 209.529 148.297 208.93 148.297H207.484V147.078H209.055C210.039 147.052 210.531 146.646 210.531 145.859ZM220.914 152H219.469V148.391H215.586V152H214.133V143.547H215.586V147.211H219.469V143.547H220.914V152ZM222.859 147.695C222.859 146.867 223.021 146.122 223.344 145.461C223.672 144.799 224.125 144.289 224.703 143.93C225.286 143.57 225.951 143.391 226.695 143.391C227.846 143.391 228.776 143.789 229.484 144.586C230.198 145.383 230.555 146.443 230.555 147.766V147.867C230.555 148.69 230.396 149.43 230.078 150.086C229.766 150.737 229.315 151.245 228.727 151.609C228.143 151.974 227.471 152.156 226.711 152.156C225.565 152.156 224.635 151.758 223.922 150.961C223.214 150.164 222.859 149.109 222.859 147.797V147.695ZM224.312 147.867C224.312 148.805 224.529 149.557 224.961 150.125C225.398 150.693 225.982 150.977 226.711 150.977C227.445 150.977 228.029 150.69 228.461 150.117C228.893 149.539 229.109 148.732 229.109 147.695C229.109 146.768 228.888 146.018 228.445 145.445C228.008 144.867 227.424 144.578 226.695 144.578C225.982 144.578 225.406 144.862 224.969 145.43C224.531 145.997 224.312 146.81 224.312 147.867ZM235.758 150.977C236.273 150.977 236.724 150.82 237.109 150.508C237.495 150.195 237.708 149.805 237.75 149.336H239.117C239.091 149.82 238.924 150.281 238.617 150.719C238.31 151.156 237.898 151.505 237.383 151.766C236.872 152.026 236.331 152.156 235.758 152.156C234.607 152.156 233.69 151.773 233.008 151.008C232.331 150.237 231.992 149.185 231.992 147.852V147.609C231.992 146.786 232.143 146.055 232.445 145.414C232.747 144.773 233.18 144.276 233.742 143.922C234.31 143.568 234.979 143.391 235.75 143.391C236.698 143.391 237.484 143.674 238.109 144.242C238.74 144.81 239.076 145.547 239.117 146.453H237.75C237.708 145.906 237.5 145.458 237.125 145.109C236.755 144.755 236.297 144.578 235.75 144.578C235.016 144.578 234.445 144.844 234.039 145.375C233.638 145.901 233.438 146.664 233.438 147.664V147.938C233.438 148.911 233.638 149.661 234.039 150.188C234.44 150.714 235.013 150.977 235.758 150.977Z" fill="#737373"/>
<path d="M134.017 33.3864V33.4312C133.838 36.7888 135.718 39.9226 138.807 41.4448H138.852C139.926 41.982 140.822 42.8326 141.404 43.9071V43.9518C142.971 46.9066 146.194 48.7421 149.641 48.563H149.686C150.939 48.4735 152.193 48.8316 153.223 49.5032C156.133 51.3387 159.848 51.3387 162.758 49.5032C163.833 48.8316 165.042 48.5183 166.295 48.563H166.34C169.787 48.7421 173.01 46.9514 174.577 43.9518C175.159 42.8774 176.055 42.0268 177.129 41.4895H177.174C180.263 39.9674 182.143 36.8336 181.964 33.4759V33.4312C181.919 32.2672 182.233 31.1032 182.904 30.1183C184.829 27.2978 184.829 23.582 182.904 20.8063C182.233 19.8214 181.919 18.6574 181.964 17.4934V17.4487C182.143 14.091 180.263 10.9572 177.174 9.43504H177.129C176.055 8.89781 175.159 8.0472 174.577 6.97275V6.92798C173.01 3.97324 169.787 2.13771 166.34 2.31679H166.295C165.042 2.40633 163.788 2.04818 162.758 1.37664C159.848 -0.458881 156.133 -0.458881 153.223 1.37664C152.148 2.04818 150.939 2.36156 149.686 2.31679H149.641C146.194 2.13771 142.971 3.92847 141.404 6.92798C140.822 8.00244 139.926 8.85304 138.852 9.39027H138.807C135.718 10.9124 133.838 14.0462 134.017 17.4039V17.4487C134.062 18.6127 133.748 19.7766 133.077 20.7616C131.152 23.582 131.152 27.2978 133.077 30.0735C133.748 31.0136 134.062 32.1776 134.017 33.3864ZM135.449 22.3732C136.479 20.8511 136.972 19.0603 136.882 17.2248V17.1801C136.792 14.9416 138.046 12.8822 140.061 11.9421H140.105C141.762 11.1363 143.105 9.83796 143.955 8.22628V8.18151C144.985 6.21168 147.179 5.00292 149.462 5.13723H149.507C151.342 5.22677 153.178 4.77908 154.745 3.79416C156.715 2.54063 159.222 2.54063 161.191 3.79416C162.758 4.77908 164.594 5.27153 166.429 5.13723H166.474C168.802 5.00292 170.951 6.21168 171.981 8.18151V8.22628C172.831 9.83796 174.174 11.1363 175.831 11.9421H175.876C177.935 12.927 179.144 14.9864 179.054 17.1801V17.2248C178.965 19.0603 179.457 20.8511 180.487 22.3732C181.74 24.2088 181.74 26.5815 180.487 28.417C179.457 29.9392 178.965 31.7299 179.054 33.5655V33.6102C179.189 35.8039 177.935 37.8633 175.876 38.8482C174.219 39.654 172.876 40.9523 172.026 42.564C170.996 44.5338 168.802 45.7426 166.519 45.6083H166.474C164.639 45.5187 162.803 45.9664 161.236 46.9514C159.266 48.2049 156.759 48.2049 154.79 46.9514C153.357 46.056 151.7 45.5635 150.044 45.5635C149.865 45.5635 149.731 45.5635 149.552 45.5635H149.507C147.224 45.6978 145.075 44.5338 144 42.5192V42.4745C143.15 40.8628 141.807 39.5645 140.15 38.7586H140.105C138.046 37.7737 136.837 35.7144 136.927 33.5207V33.4759C137.016 31.6404 136.524 29.8496 135.494 28.3275C134.196 26.5815 134.196 24.2088 135.449 22.3732Z" fill="#CA0100"/>
<path d="M158.724 32.939C158.948 33.0733 159.172 33.1628 159.44 33.1628C159.933 33.1628 160.336 32.939 160.604 32.536L171.304 15.4343C171.573 15.0314 171.573 14.4942 171.349 14.0465C171.125 13.5988 170.677 13.3302 170.185 13.3302H170.14C169.648 13.3302 169.245 13.5988 168.976 13.957L158.276 31.0587C157.918 31.6854 158.097 32.536 158.724 32.939Z" fill="#262626"/>
<path d="M159.932 23.7162C162.394 23.7162 164.364 21.4778 164.364 18.7021C164.364 15.9264 162.35 13.688 159.932 13.688C157.47 13.688 155.5 15.9264 155.5 18.7021C155.5 21.4778 157.515 23.7162 159.932 23.7162ZM159.932 16.4637C160.872 16.4637 161.633 17.4933 161.633 18.7469C161.633 20.0004 160.872 21.0301 159.932 21.0301C158.992 21.0301 158.231 20.0004 158.231 18.7469C158.231 17.4933 158.992 16.4637 159.932 16.4637Z" fill="#262626"/>
<path d="M165.219 27.7447C165.219 30.5204 167.233 32.7588 169.651 32.7588C172.113 32.7588 174.083 30.5204 174.083 27.7447C174.083 24.969 172.068 22.7306 169.651 22.7306C167.233 22.7306 165.219 24.969 165.219 27.7447ZM169.696 30.0279C168.755 30.0279 167.994 28.9982 167.994 27.7447C167.994 26.4912 168.755 25.4615 169.696 25.4615C170.636 25.4615 171.397 26.4912 171.397 27.7447C171.397 28.9982 170.636 30.0279 169.696 30.0279Z" fill="#262626"/>
<path d="M188.495 56.6218C186.57 53.2193 182.317 51.921 178.87 53.667L167.543 59.0393C165.976 56.1293 162.977 54.2938 159.664 54.2043L149.188 53.9356C147.531 53.8909 145.92 53.488 144.442 52.7269L143.368 52.1897C137.906 49.3692 131.415 49.3692 125.998 52.1897L126.042 49.7721C126.042 48.9663 125.416 48.2948 124.655 48.2948L113.194 47.8918C112.388 47.8918 111.716 48.5186 111.716 49.2797L111 74.4846C111 75.2904 111.627 75.9619 112.388 75.9619L123.849 76.2753H123.893C124.655 76.2753 125.326 75.6485 125.326 74.8875L125.371 73.6787L128.37 72.067C129.534 71.4403 130.922 71.306 132.176 71.6641L149.949 76.6335C149.994 76.6335 149.994 76.6335 150.038 76.6782C151.337 76.9468 152.635 77.0812 153.933 77.0812C156.709 77.0812 159.485 76.4992 161.992 75.3352C162.037 75.2904 162.126 75.2904 162.171 75.2456L187.958 58.5468C188.629 58.1439 188.853 57.2933 188.495 56.6218ZM122.506 73.3653L113.91 73.1415L114.537 50.8914L123.132 51.1152L122.506 73.3653ZM160.738 72.7386C157.604 74.1712 154.068 74.5293 150.71 73.8578L132.982 68.8884C130.967 68.3064 128.863 68.5751 127.027 69.56L125.505 70.3658L125.908 55.5473C130.743 52.324 136.921 52.0106 142.07 54.6967L143.144 55.2339C145.024 56.1741 147.039 56.7113 149.143 56.8009L159.619 57.0695C162.574 57.159 165.036 59.2631 165.663 62.1283L150.083 61.6807C149.277 61.6807 148.606 62.3074 148.606 63.0685C148.606 63.8296 149.233 64.5459 149.994 64.5459L167.185 65.0383H167.23C167.991 65.0383 168.662 64.4116 168.662 63.6505C168.662 63.0237 168.618 62.397 168.528 61.7702L180.123 56.2636H180.168C181.824 55.413 183.794 55.7264 185.182 56.9799L160.738 72.7386Z" fill="#262626"/>
<path d="M147.215 33.6546C151.379 33.6546 153.751 30.1179 153.751 23.9845C153.751 21.1193 153.214 18.8361 152.184 17.2244C151.11 15.568 149.498 14.6726 147.528 14.6726C145.603 14.6726 143.947 15.568 142.783 17.2244C141.619 18.8809 140.992 21.2984 140.992 24.2084C141.037 30.0283 143.454 33.6546 147.215 33.6546ZM147.394 17.4483C150.08 17.4483 150.483 21.6118 150.483 24.1188C150.483 26.6707 150.08 30.9237 147.394 30.9237C145.514 30.9237 144.305 28.3719 144.305 24.2531C144.26 20.0896 145.514 17.4483 147.394 17.4483Z" fill="#262626"/>
</svg>
