<svg width="63" height="19" viewBox="0 0 63 19" fill="none" xmlns="http://www.w3.org/2000/svg">
<path d="M5.90613 0C7.15827 0 7.55165 0.88997 7.87853 1.77994C8.01705 2.159 11.2693 10.9873 11.369 11.251C11.3967 11.3224 11.3801 11.4433 11.2638 11.4872C11.1474 11.5312 9.45756 12.1849 9.36338 12.2179C9.26919 12.2508 9.16392 12.2014 9.13068 12.108C9.09743 12.0146 8.3938 10.0918 8.31623 9.87757C8.08353 9.87757 3.72873 9.87757 3.49603 9.87757C3.41846 10.0918 2.70928 12.0201 2.67604 12.108C2.6428 12.1959 2.54307 12.2563 2.44334 12.2179C2.34361 12.1794 0.648234 11.5257 0.548505 11.4872C0.448777 11.4488 0.404454 11.3389 0.443237 11.251C0.565127 10.9214 3.76751 2.23042 3.92819 1.77994C4.24399 0.900957 4.65399 0 5.90613 0ZM0.182835 15.8052C0.0831069 15.8052 0 15.8876 0 15.9865V18.0466C0 18.151 0.0831069 18.2334 0.182835 18.2334H11.6239C11.7236 18.2334 11.8067 18.151 11.8067 18.0466V15.9865C11.8067 15.8821 11.7236 15.7997 11.6239 15.7997H0.182835V15.8052ZM5.89505 2.88416L4.26615 7.73505H7.55165L5.91721 2.88416H5.89505ZM48.4679 10.0039C48.4679 10.5533 48.1632 10.9159 47.5981 10.9159C47.3765 10.9159 47.1936 10.9159 46.9 10.839V9.17438C47.0274 9.15241 47.2934 9.11395 47.5981 9.12494C48.1688 9.14691 48.4679 9.41061 48.4679 10.0039ZM49.6259 9.92152C49.6259 8.90519 49.022 8.20201 47.7588 8.20201C47.4485 8.20201 47.2324 8.22948 46.8944 8.31188V6.84508C47.105 6.81761 47.4596 6.79014 47.8529 6.79014C48.2242 6.79014 48.6951 6.81212 49.1106 6.86156L49.1383 6.01004C48.6674 5.90566 47.9859 5.83974 47.4596 5.83974C46.9388 5.83974 46.1299 5.97159 45.742 6.07047V11.4872C46.3404 11.707 46.9277 11.8058 47.5316 11.8058C48.9112 11.8113 49.6259 11.0862 49.6259 9.92152ZM36.4839 9.62486C36.4839 10.383 36.1792 10.8664 35.6806 10.8664C35.47 10.8664 35.3592 10.8554 35.121 10.7785V8.51515C35.3814 8.39429 35.5199 8.39429 35.7304 8.39429C36.2346 8.39429 36.4839 8.80081 36.4839 9.62486ZM32.6776 9.65233C32.6776 8.82828 32.9269 8.39429 33.4256 8.39429C33.6361 8.39429 33.7746 8.39429 34.035 8.51515V10.784C33.7968 10.8609 33.686 10.8719 33.4755 10.8719C32.9103 10.8719 32.6776 10.4105 32.6776 9.65233ZM35.121 13.0529V11.5751C35.2595 11.6575 35.5365 11.7784 35.9964 11.7784C36.9216 11.7784 37.5976 11.0202 37.5976 9.63035C37.5976 8.13608 36.9216 7.49333 35.8135 7.49333C35.531 7.49333 35.3481 7.5208 35.121 7.63067V5.86721H34.035V7.63067C33.8079 7.5208 33.6195 7.49333 33.3425 7.49333C32.2344 7.49333 31.5585 8.15806 31.5585 9.65782C31.5585 11.0477 32.1679 11.7839 33.1596 11.7839C33.625 11.7839 33.9021 11.663 34.0406 11.5806V13.0584H35.121V13.0529ZM26.8823 11.707V7.74604C26.2839 7.57024 25.8241 7.49333 25.2257 7.49333C24.6273 7.49333 24.1786 7.57024 23.5802 7.74604V9.77319C23.5802 10.3226 23.5691 10.4874 23.5082 10.6687C23.4472 10.8225 23.3697 11.0148 23.148 11.1576L23.4472 11.7894C24.3226 11.5421 24.6495 11.1686 24.6495 9.97096V8.48218C24.9376 8.43823 24.9986 8.43274 25.2257 8.43274C25.4584 8.43274 25.5083 8.44373 25.7964 8.48218V11.7124H26.8823V11.707ZM40.2958 10.839C40.0575 10.9214 39.8968 10.9378 39.7085 10.9378C39.3206 10.9378 39.099 10.784 39.099 10.3885C39.099 9.97645 39.376 9.83911 39.919 9.83911C40.0464 9.83911 40.1794 9.86109 40.2404 9.87757V10.1742C40.2404 10.4929 40.257 10.7016 40.2958 10.839ZM41.6809 11.3114C41.3928 10.8774 41.3207 10.6247 41.3207 10.0753V8.97112C41.3207 8.37231 41.2487 8.15257 41.088 7.93282C40.8664 7.62517 40.5008 7.49333 39.8193 7.49333C39.3428 7.49333 38.8663 7.54277 38.4175 7.65814L38.5782 8.44922C38.8829 8.40527 39.2043 8.37231 39.4314 8.37231C40.1517 8.37231 40.2348 8.47669 40.2348 9.00957V9.21284C40.0741 9.16889 39.8913 9.14142 39.6863 9.14142C38.5948 9.14142 38.0242 9.66881 38.0242 10.5368C38.0242 11.3554 38.6392 11.8003 39.3871 11.8003C39.6641 11.8003 39.9578 11.7509 40.1849 11.6575C40.3235 11.5971 40.3844 11.5641 40.5617 11.4433C40.6725 11.6026 40.8886 11.7619 40.9772 11.7894L41.6809 11.3114ZM52.3075 10.839C52.0692 10.9214 51.9086 10.9378 51.7202 10.9378C51.3324 10.9378 51.1107 10.784 51.1107 10.3885C51.1107 9.97645 51.3878 9.83911 51.9307 9.83911C52.0637 9.83911 52.1911 9.86109 52.2521 9.87757V10.1742C52.2521 10.4929 52.2687 10.7016 52.3075 10.839ZM53.6926 11.3114C53.4045 10.8774 53.3269 10.6247 53.3269 10.0753V8.97112C53.3269 8.37231 53.2604 8.15257 53.0998 7.93282C52.8781 7.62517 52.5125 7.49333 51.831 7.49333C51.349 7.49333 50.8836 7.54277 50.4293 7.65814L50.5899 8.44922C50.8947 8.40527 51.216 8.37231 51.4432 8.37231C52.1634 8.37231 52.2465 8.47669 52.2465 9.00957V9.21284C52.0859 9.16889 51.9086 9.14142 51.698 9.14142C50.6121 9.14142 50.0359 9.66881 50.0359 10.5368C50.0359 11.3554 50.6509 11.8003 51.3988 11.8003C51.6759 11.8003 51.9695 11.7509 52.1967 11.6575C52.3352 11.5971 52.3961 11.5641 52.5734 11.4433C52.6842 11.6026 52.9003 11.7619 52.989 11.7894L53.6926 11.3114ZM29.9739 10.2841C29.9739 10.6906 29.8298 10.9653 29.309 10.9653C29.1317 10.9653 29.0597 10.9653 28.8326 10.8994V9.71276C29.1151 9.65782 29.1428 9.64684 29.309 9.64684C29.8077 9.65233 29.9739 9.89405 29.9739 10.2841ZM27.7411 7.55925L27.7355 11.4872C28.2508 11.7015 28.8215 11.8003 29.3257 11.8003C30.4836 11.8003 31.1041 11.207 31.1041 10.2292C31.1041 9.34469 30.5556 8.79532 29.5306 8.79532C29.2702 8.79532 29.1151 8.82828 28.8326 8.8997V7.55376H27.7411V7.55925ZM57.6762 11.707V7.59771H56.5847V9.15241H55.3492V7.59771H54.2633V11.707H55.3492V10.0314H56.5847V11.707H57.6762ZM62.1473 11.707C62.1473 11.707 61.5545 10.4489 61.4049 10.1632C61.2442 9.83911 61.0891 9.61937 60.7567 9.53696V9.52048C60.9838 9.47653 61.1611 9.34469 61.355 8.93266C61.5434 8.53163 61.5988 8.44373 61.7041 8.35034C61.8094 8.25694 61.959 8.28991 61.959 8.28991L62.0144 7.54277C61.8592 7.5208 61.6875 7.5208 61.5046 7.53178C61.211 7.54826 61.0559 7.63067 60.9118 7.779C60.801 7.88887 60.7234 8.05368 60.6237 8.25145C60.5184 8.46021 60.4409 8.62502 60.3356 8.83927C60.2303 9.05352 60.1805 9.15241 59.8979 9.15241H59.7151V7.59771H58.6236V11.707H59.7151V10.0259H59.8647C60.1749 10.0259 60.2303 10.1028 60.3965 10.4269C60.5905 10.817 60.9561 11.707 60.9561 11.707H62.1473ZM21.5524 11.707H22.8045L20.9097 5.9606C20.7102 5.89468 20.4609 5.85073 20.2005 5.85073C19.9124 5.85073 19.8127 5.88918 19.5855 5.9606L17.5743 11.707H18.7766C18.7766 11.707 18.9373 11.2015 19.1367 10.5808H21.2144C21.4028 11.2015 21.5524 11.707 21.5524 11.707ZM19.4415 9.61387C19.4415 9.61387 19.7905 8.46021 19.8404 8.28441C19.9789 7.81745 20.1894 7.08131 20.1894 7.08131H20.2227C20.2227 7.08131 20.4166 7.84492 20.544 8.27892C20.5939 8.44922 20.9263 9.61937 20.9263 9.61937H19.4415V9.61387ZM43.5314 8.96013C43.1491 8.96013 42.8388 9.26777 42.8388 9.64684C42.8388 10.0314 43.1491 10.339 43.5314 10.339C43.9137 10.339 44.2239 10.0314 44.2239 9.64684C44.2239 9.27327 43.9137 8.96013 43.5314 8.96013Z" fill="#E52713"/>
</svg>
