<svg width="300" height="162" viewBox="0 0 300 162" fill="none" xmlns="http://www.w3.org/2000/svg">
<path d="M111.123 112.807H112.568C113.298 112.8 113.874 112.611 114.297 112.24C114.727 111.869 114.941 111.332 114.941 110.629C114.941 109.952 114.762 109.428 114.404 109.057C114.053 108.679 113.512 108.49 112.783 108.49C112.145 108.49 111.621 108.676 111.211 109.047C110.801 109.411 110.596 109.89 110.596 110.482H108.223C108.223 109.753 108.415 109.089 108.799 108.49C109.189 107.891 109.73 107.426 110.42 107.094C111.117 106.755 111.895 106.586 112.754 106.586C114.173 106.586 115.286 106.944 116.094 107.66C116.908 108.37 117.314 109.359 117.314 110.629C117.314 111.267 117.109 111.869 116.699 112.436C116.296 112.995 115.771 113.419 115.127 113.705C115.908 113.972 116.501 114.392 116.904 114.965C117.314 115.538 117.52 116.221 117.52 117.016C117.52 118.292 117.08 119.307 116.201 120.062C115.329 120.818 114.18 121.195 112.754 121.195C111.387 121.195 110.267 120.831 109.395 120.102C108.522 119.372 108.086 118.402 108.086 117.191H110.459C110.459 117.816 110.667 118.324 111.084 118.715C111.507 119.105 112.074 119.301 112.783 119.301C113.519 119.301 114.098 119.105 114.521 118.715C114.945 118.324 115.156 117.758 115.156 117.016C115.156 116.267 114.935 115.691 114.492 115.287C114.049 114.883 113.392 114.682 112.52 114.682H111.123V112.807ZM129.014 115.014C129.014 117.058 128.63 118.601 127.861 119.643C127.1 120.678 125.938 121.195 124.375 121.195C122.839 121.195 121.68 120.691 120.898 119.682C120.124 118.666 119.727 117.165 119.707 115.18V112.719C119.707 110.674 120.088 109.141 120.85 108.119C121.618 107.097 122.786 106.586 124.355 106.586C125.911 106.586 127.07 107.084 127.832 108.08C128.6 109.076 128.994 110.567 129.014 112.553V115.014ZM126.641 112.357C126.641 111.023 126.458 110.046 126.094 109.428C125.729 108.803 125.15 108.49 124.355 108.49C123.581 108.49 123.011 108.786 122.646 109.379C122.282 109.965 122.09 110.883 122.07 112.133V115.355C122.07 116.684 122.256 117.673 122.627 118.324C122.998 118.975 123.581 119.301 124.375 119.301C125.137 119.301 125.7 119.001 126.064 118.402C126.429 117.797 126.621 116.853 126.641 115.57V112.357ZM142.52 118.08L145.645 110.434H148.613V121H146.24V114.008L143.33 121H141.719L138.799 113.969V121H136.426V110.434H139.414L142.52 118.08ZM157.881 110.434H160.244V121H157.881V113.949L153.74 121H151.377V110.434H153.74V117.484L157.881 110.434ZM171.719 121H169.346V116.732H165.234V121H162.861V110.434H165.234V114.838H169.346V110.434H171.719V121ZM177.949 117.602L180.098 110.434H182.627L178.428 122.602C177.783 124.379 176.689 125.268 175.146 125.268C174.801 125.268 174.421 125.209 174.004 125.092V123.256L174.453 123.285C175.052 123.285 175.501 123.174 175.801 122.953C176.107 122.738 176.348 122.374 176.523 121.859L176.865 120.951L173.154 110.434H175.713L177.949 117.602ZM192.314 112.318H188.887V121H186.514V112.318H183.125V110.434H192.314V112.318Z" fill="#262626"/>
<path d="M38.0234 145.68C38.0234 146.794 37.8359 147.768 37.4609 148.602C37.0859 149.43 36.5547 150.062 35.8672 150.5C35.1797 150.938 34.3776 151.156 33.4609 151.156C32.5651 151.156 31.7708 150.938 31.0781 150.5C30.3854 150.057 29.8464 149.43 29.4609 148.617C29.0807 147.799 28.8854 146.854 28.875 145.781V144.961C28.875 143.867 29.0651 142.901 29.4453 142.062C29.8255 141.224 30.362 140.583 31.0547 140.141C31.7526 139.693 32.5495 139.469 33.4453 139.469C34.3568 139.469 35.1589 139.69 35.8516 140.133C36.5495 140.57 37.0859 141.208 37.4609 142.047C37.8359 142.88 38.0234 143.852 38.0234 144.961V145.68ZM36.5312 144.945C36.5312 143.596 36.2604 142.562 35.7188 141.844C35.1771 141.12 34.4193 140.758 33.4453 140.758C32.4974 140.758 31.75 141.12 31.2031 141.844C30.6615 142.562 30.3828 143.562 30.3672 144.844V145.68C30.3672 146.987 30.6406 148.016 31.1875 148.766C31.7396 149.51 32.4974 149.883 33.4609 149.883C34.4297 149.883 35.1797 149.531 35.7109 148.828C36.2422 148.12 36.5156 147.107 36.5312 145.789V144.945ZM46.3281 143.719H43.4922V151H42.0469V143.719H39.2656V142.547H46.3281V143.719ZM47.8672 151V142.547H51.1641C52.2891 142.547 53.151 142.745 53.75 143.141C54.3542 143.531 54.6562 144.107 54.6562 144.867C54.6562 145.258 54.5391 145.612 54.3047 145.93C54.0703 146.242 53.724 146.482 53.2656 146.648C53.776 146.768 54.1849 147.003 54.4922 147.352C54.8047 147.701 54.9609 148.117 54.9609 148.602C54.9609 149.378 54.6745 149.971 54.1016 150.383C53.5339 150.794 52.7292 151 51.6875 151H47.8672ZM49.3125 147.289V149.836H51.7031C52.3073 149.836 52.7578 149.724 53.0547 149.5C53.3568 149.276 53.5078 148.961 53.5078 148.555C53.5078 147.711 52.888 147.289 51.6484 147.289H49.3125ZM49.3125 146.133H51.1797C52.5339 146.133 53.2109 145.737 53.2109 144.945C53.2109 144.154 52.5703 143.745 51.2891 143.719H49.3125V146.133ZM60.3828 151.156C59.237 151.156 58.3047 150.781 57.5859 150.031C56.8672 149.276 56.5078 148.268 56.5078 147.008V146.742C56.5078 145.904 56.6667 145.156 56.9844 144.5C57.3073 143.839 57.7552 143.323 58.3281 142.953C58.9062 142.578 59.5312 142.391 60.2031 142.391C61.3021 142.391 62.1562 142.753 62.7656 143.477C63.375 144.201 63.6797 145.237 63.6797 146.586V147.188H57.9531C57.974 148.021 58.2161 148.695 58.6797 149.211C59.1484 149.721 59.7422 149.977 60.4609 149.977C60.9714 149.977 61.4036 149.872 61.7578 149.664C62.112 149.456 62.4219 149.18 62.6875 148.836L63.5703 149.523C62.862 150.612 61.7995 151.156 60.3828 151.156ZM60.2031 143.578C59.6198 143.578 59.1302 143.792 58.7344 144.219C58.3385 144.641 58.0938 145.234 58 146H62.2344V145.891C62.1927 145.156 61.9948 144.589 61.6406 144.188C61.2865 143.781 60.8073 143.578 60.2031 143.578ZM71.5469 143.719H68.7109V151H67.2656V143.719H64.4844V142.547H71.5469V143.719ZM79.5547 147.398H78.5V151H77.0469V142.547H78.5V146.125H79.4453L82.2891 142.547H84.0391L80.6953 146.609L84.3203 151H82.4844L79.5547 147.398ZM92.7031 146.867C92.7031 148.154 92.4089 149.19 91.8203 149.977C91.2318 150.763 90.4349 151.156 89.4297 151.156C88.4036 151.156 87.5964 150.831 87.0078 150.18V154.25H85.5625V142.547H86.8828L86.9531 143.484C87.5417 142.755 88.3594 142.391 89.4062 142.391C90.4219 142.391 91.224 142.773 91.8125 143.539C92.4062 144.305 92.7031 145.37 92.7031 146.734V146.867ZM91.2578 146.703C91.2578 145.75 91.0547 144.997 90.6484 144.445C90.2422 143.893 89.6849 143.617 88.9766 143.617C88.1016 143.617 87.4453 144.005 87.0078 144.781V148.82C87.4401 149.591 88.1016 149.977 88.9922 149.977C89.6849 149.977 90.2344 149.703 90.6406 149.156C91.0521 148.604 91.2578 147.786 91.2578 146.703ZM98.0547 151.156C96.9089 151.156 95.9766 150.781 95.2578 150.031C94.5391 149.276 94.1797 148.268 94.1797 147.008V146.742C94.1797 145.904 94.3385 145.156 94.6562 144.5C94.9792 143.839 95.4271 143.323 96 142.953C96.5781 142.578 97.2031 142.391 97.875 142.391C98.974 142.391 99.8281 142.753 100.438 143.477C101.047 144.201 101.352 145.237 101.352 146.586V147.188H95.625C95.6458 148.021 95.888 148.695 96.3516 149.211C96.8203 149.721 97.4141 149.977 98.1328 149.977C98.6432 149.977 99.0755 149.872 99.4297 149.664C99.7839 149.456 100.094 149.18 100.359 148.836L101.242 149.523C100.534 150.612 99.4714 151.156 98.0547 151.156ZM97.875 143.578C97.2917 143.578 96.8021 143.792 96.4062 144.219C96.0104 144.641 95.7656 145.234 95.6719 146H99.9062V145.891C99.8646 145.156 99.6667 144.589 99.3125 144.188C98.9583 143.781 98.4792 143.578 97.875 143.578ZM102.961 149.82L103.461 149.203C104.023 148.474 104.344 147.38 104.422 145.922L104.555 142.547H110V149.82H111.086V153.484H109.641V151H103.742V153.484H102.297L102.305 149.82H102.961ZM104.672 149.82H108.555V143.883H105.953L105.867 145.898C105.779 147.581 105.38 148.888 104.672 149.82ZM118.156 142.547H119.602V151H118.156V144.836L114.258 151H112.812V142.547H114.258V148.719L118.156 142.547ZM128.203 143.719H125.367V151H123.922V143.719H121.141V142.547H128.203V143.719ZM136.516 151H135.07V147.391H131.188V151H129.734V142.547H131.188V146.211H135.07V142.547H136.516V151ZM140.422 145.461H142.617C143.576 145.471 144.333 145.721 144.891 146.211C145.448 146.701 145.727 147.365 145.727 148.203C145.727 149.047 145.44 149.724 144.867 150.234C144.294 150.745 143.523 151 142.555 151H138.977V142.547H140.422V145.461ZM148.742 151H147.289V142.547H148.742V151ZM140.422 146.641V149.82H142.57C143.112 149.82 143.531 149.682 143.828 149.406C144.125 149.125 144.273 148.742 144.273 148.258C144.273 147.789 144.128 147.406 143.836 147.109C143.549 146.807 143.146 146.651 142.625 146.641H140.422ZM154.102 145.633L155.977 142.547H157.664L154.898 146.727L157.75 151H156.078L154.125 147.836L152.172 151H150.492L153.344 146.727L150.578 142.547H152.25L154.102 145.633ZM166.562 149.977C167.078 149.977 167.529 149.82 167.914 149.508C168.299 149.195 168.513 148.805 168.555 148.336H169.922C169.896 148.82 169.729 149.281 169.422 149.719C169.115 150.156 168.703 150.505 168.188 150.766C167.677 151.026 167.135 151.156 166.562 151.156C165.411 151.156 164.495 150.773 163.812 150.008C163.135 149.237 162.797 148.185 162.797 146.852V146.609C162.797 145.786 162.948 145.055 163.25 144.414C163.552 143.773 163.984 143.276 164.547 142.922C165.115 142.568 165.784 142.391 166.555 142.391C167.503 142.391 168.289 142.674 168.914 143.242C169.544 143.81 169.88 144.547 169.922 145.453H168.555C168.513 144.906 168.305 144.458 167.93 144.109C167.56 143.755 167.102 143.578 166.555 143.578C165.82 143.578 165.25 143.844 164.844 144.375C164.443 144.901 164.242 145.664 164.242 146.664V146.938C164.242 147.911 164.443 148.661 164.844 149.188C165.245 149.714 165.818 149.977 166.562 149.977ZM178.461 151H177.016V143.742H173.125V151H171.672V142.547H178.461V151ZM184.289 151.156C183.143 151.156 182.211 150.781 181.492 150.031C180.773 149.276 180.414 148.268 180.414 147.008V146.742C180.414 145.904 180.573 145.156 180.891 144.5C181.214 143.839 181.661 143.323 182.234 142.953C182.812 142.578 183.438 142.391 184.109 142.391C185.208 142.391 186.062 142.753 186.672 143.477C187.281 144.201 187.586 145.237 187.586 146.586V147.188H181.859C181.88 148.021 182.122 148.695 182.586 149.211C183.055 149.721 183.648 149.977 184.367 149.977C184.878 149.977 185.31 149.872 185.664 149.664C186.018 149.456 186.328 149.18 186.594 148.836L187.477 149.523C186.768 150.612 185.706 151.156 184.289 151.156ZM184.109 143.578C183.526 143.578 183.036 143.792 182.641 144.219C182.245 144.641 182 145.234 181.906 146H186.141V145.891C186.099 145.156 185.901 144.589 185.547 144.188C185.193 143.781 184.714 143.578 184.109 143.578ZM189.391 142.547H190.844V149.82H194.734V142.547H196.18V149.82H197.188L197.047 153.508H195.75V151H189.391V142.547ZM204.219 142.547H205.664V151H204.219V144.836L200.32 151H198.875V142.547H200.32V148.719L204.219 142.547ZM213.203 151C213.12 150.833 213.052 150.536 213 150.109C212.328 150.807 211.526 151.156 210.594 151.156C209.76 151.156 209.076 150.922 208.539 150.453C208.008 149.979 207.742 149.38 207.742 148.656C207.742 147.776 208.076 147.094 208.742 146.609C209.414 146.12 210.357 145.875 211.57 145.875H212.977V145.211C212.977 144.706 212.826 144.305 212.523 144.008C212.221 143.706 211.776 143.555 211.188 143.555C210.672 143.555 210.24 143.685 209.891 143.945C209.542 144.206 209.367 144.521 209.367 144.891H207.914C207.914 144.469 208.062 144.062 208.359 143.672C208.661 143.276 209.068 142.964 209.578 142.734C210.094 142.505 210.659 142.391 211.273 142.391C212.247 142.391 213.01 142.635 213.562 143.125C214.115 143.609 214.401 144.279 214.422 145.133V149.023C214.422 149.799 214.521 150.417 214.719 150.875V151H213.203ZM210.805 149.898C211.258 149.898 211.688 149.781 212.094 149.547C212.5 149.312 212.794 149.008 212.977 148.633V146.898H211.844C210.073 146.898 209.188 147.417 209.188 148.453C209.188 148.906 209.339 149.26 209.641 149.516C209.943 149.771 210.331 149.898 210.805 149.898ZM223.617 142.547V151H222.164V143.742H219.289L219.117 146.906C219.023 148.359 218.779 149.398 218.383 150.023C217.992 150.648 217.37 150.974 216.516 151H215.938V149.727L216.352 149.695C216.82 149.643 217.156 149.372 217.359 148.883C217.562 148.393 217.693 147.487 217.75 146.164L217.906 142.547H223.617ZM231.406 142.547H232.852V151H231.406V144.836L227.508 151H226.062V142.547H227.508V148.719L231.406 142.547ZM238.562 149.977C239.078 149.977 239.529 149.82 239.914 149.508C240.299 149.195 240.513 148.805 240.555 148.336H241.922C241.896 148.82 241.729 149.281 241.422 149.719C241.115 150.156 240.703 150.505 240.188 150.766C239.677 151.026 239.135 151.156 238.562 151.156C237.411 151.156 236.495 150.773 235.812 150.008C235.135 149.237 234.797 148.185 234.797 146.852V146.609C234.797 145.786 234.948 145.055 235.25 144.414C235.552 143.773 235.984 143.276 236.547 142.922C237.115 142.568 237.784 142.391 238.555 142.391C239.503 142.391 240.289 142.674 240.914 143.242C241.544 143.81 241.88 144.547 241.922 145.453H240.555C240.513 144.906 240.305 144.458 239.93 144.109C239.56 143.755 239.102 143.578 238.555 143.578C237.82 143.578 237.25 143.844 236.844 144.375C236.443 144.901 236.242 145.664 236.242 146.664V146.938C236.242 147.911 236.443 148.661 236.844 149.188C237.245 149.714 237.818 149.977 238.562 149.977ZM249.828 143.719H246.992V151H245.547V143.719H242.766V142.547H249.828V143.719ZM250.523 146.695C250.523 145.867 250.685 145.122 251.008 144.461C251.336 143.799 251.789 143.289 252.367 142.93C252.951 142.57 253.615 142.391 254.359 142.391C255.51 142.391 256.44 142.789 257.148 143.586C257.862 144.383 258.219 145.443 258.219 146.766V146.867C258.219 147.69 258.06 148.43 257.742 149.086C257.43 149.737 256.979 150.245 256.391 150.609C255.807 150.974 255.135 151.156 254.375 151.156C253.229 151.156 252.299 150.758 251.586 149.961C250.878 149.164 250.523 148.109 250.523 146.797V146.695ZM251.977 146.867C251.977 147.805 252.193 148.557 252.625 149.125C253.062 149.693 253.646 149.977 254.375 149.977C255.109 149.977 255.693 149.69 256.125 149.117C256.557 148.539 256.773 147.732 256.773 146.695C256.773 145.768 256.552 145.018 256.109 144.445C255.672 143.867 255.089 143.578 254.359 143.578C253.646 143.578 253.07 143.862 252.633 144.43C252.195 144.997 251.977 145.81 251.977 146.867ZM260.164 151V142.547H263.461C264.586 142.547 265.448 142.745 266.047 143.141C266.651 143.531 266.953 144.107 266.953 144.867C266.953 145.258 266.836 145.612 266.602 145.93C266.367 146.242 266.021 146.482 265.562 146.648C266.073 146.768 266.482 147.003 266.789 147.352C267.102 147.701 267.258 148.117 267.258 148.602C267.258 149.378 266.971 149.971 266.398 150.383C265.831 150.794 265.026 151 263.984 151H260.164ZM261.609 147.289V149.836H264C264.604 149.836 265.055 149.724 265.352 149.5C265.654 149.276 265.805 148.961 265.805 148.555C265.805 147.711 265.185 147.289 263.945 147.289H261.609ZM261.609 146.133H263.477C264.831 146.133 265.508 145.737 265.508 144.945C265.508 144.154 264.867 143.745 263.586 143.719H261.609V146.133Z" fill="#737373"/>
<path d="M178.468 66.0785L175.647 57.5725C174.662 54.6177 172.11 52.424 169.066 51.842L160.873 50.3647V49.7379C162.306 48.9321 163.515 47.8128 164.5 46.5145H166.962C168.977 46.5145 170.633 44.8581 170.633 42.8435V28.1593C170.633 19.3846 163.515 12.2664 154.74 12.2664C145.965 12.2664 138.847 19.3846 138.847 28.1593V36.7102C138.847 39.0829 140.504 41.0527 142.742 41.5004C143.414 45.0372 145.607 47.9919 148.652 49.7379V50.3647L140.459 51.842C137.37 52.424 134.863 54.5729 133.878 57.5725L133.385 59.0498L129.222 54.8863C128.729 54.3939 128.729 53.6328 129.222 53.1403L134.057 48.3053L124.969 39.262L119.507 44.7238C117.895 46.3355 117 48.4844 117 50.7676C117 53.0508 117.895 55.1997 119.507 56.8114L136.027 73.3311C137.638 74.9428 139.787 75.8382 142.071 75.8382C144.354 75.8382 146.503 74.9428 148.07 73.3759L154.024 67.9141L152.144 66.0785H178.468ZM168.216 42.8435C168.216 43.515 167.678 44.0523 167.007 44.0523H165.977C166.335 43.2464 166.604 42.3958 166.783 41.5004C167.32 41.4109 167.768 41.187 168.26 40.9184V42.8435H168.216ZM167.007 38.8143V34.606C167.723 35.0089 168.216 35.8148 168.216 36.7102C168.216 37.6055 167.723 38.4114 167.007 38.8143ZM142.518 38.8143C141.802 38.4114 141.309 37.6055 141.309 36.7102C141.309 35.8148 141.802 35.0089 142.518 34.606V38.8143ZM142.518 30.5768V31.9647C142.071 32.099 141.668 32.2333 141.309 32.4571V28.1145C141.309 20.6829 147.353 14.6391 154.785 14.6391C162.217 14.6391 168.26 20.6829 168.26 28.1145V32.4571C167.902 32.2333 167.455 32.0542 167.052 31.9647V30.5768H165.798C162.172 30.5768 158.769 29.189 156.218 26.5924L154.785 25.1598L153.352 26.5924C150.8 29.1442 147.398 30.5768 143.772 30.5768H142.518ZM144.981 39.1724V32.9943C148.652 32.7257 152.099 31.2036 154.785 28.6518C157.471 31.2036 160.918 32.7257 164.589 32.9943V39.1724C164.589 40.9632 164.097 42.6197 163.246 44.0523H154.785V46.5145H161.232C159.486 48.0367 157.247 48.9768 154.785 48.9768C149.368 48.9321 144.981 44.5447 144.981 39.1724ZM158.456 50.8571V50.9019L154.785 54.5729L151.114 50.9019V50.8571C152.278 51.2153 153.487 51.4391 154.785 51.4391C156.038 51.3944 157.292 51.2153 158.456 50.8571ZM136.206 58.3783C136.922 56.2742 138.713 54.7072 140.907 54.3043L149.457 52.7374L154.785 58.0649L160.112 52.7374L168.663 54.3043C170.857 54.7072 172.648 56.2742 173.364 58.3783L175.11 63.661H149.771L145.025 58.9155L139.743 63.7058C139.295 64.1535 138.489 64.1535 137.997 63.7058L135.31 61.0197L136.206 58.3783ZM124.969 42.7092L130.565 48.3053L129.222 49.6484L123.626 44.0523L124.969 42.7092ZM146.413 71.6299C145.249 72.7939 143.727 73.4206 142.071 73.4206C140.459 73.4206 138.892 72.7939 137.728 71.6299L121.253 55.1102C120.089 53.9462 119.462 52.424 119.462 50.7676C119.462 49.1111 120.089 47.589 121.253 46.425L121.925 45.7535L127.521 51.3496L127.476 51.3944C126.043 52.827 126.043 55.1549 127.476 56.5875L136.251 65.407C136.922 66.0785 137.862 66.4815 138.847 66.4815C139.832 66.4815 140.772 66.0785 141.399 65.4518L141.489 65.3622L147.129 71.0031L146.413 71.6299ZM148.92 69.3467L143.279 63.7058L144.891 62.2284L150.487 67.8245L148.92 69.3467Z" fill="#262626"/>
<path d="M189.028 0H171.882C169.867 0 168.211 1.65645 168.211 3.67105V13.4754C168.211 15.49 169.867 17.1465 171.882 17.1465H175.15L173.897 24.5333L185.716 17.1465H189.028C191.043 17.1465 192.7 15.49 192.7 13.4754V3.67105C192.7 1.65645 191.043 0 189.028 0ZM190.237 13.4754C190.237 14.147 189.7 14.6842 189.028 14.6842H184.999L177.209 19.5192L178.06 14.6842H171.882C171.21 14.6842 170.673 14.147 170.673 13.4754V3.67105C170.673 2.99951 171.21 2.46229 171.882 2.46229H189.028C189.7 2.46229 190.237 2.99951 190.237 3.67105V13.4754Z" fill="#262626"/>
<path d="M187.825 4.87964H173.141V7.34193H187.825V4.87964Z" fill="#CA0100"/>
<path d="M182.945 9.80444H173.141V12.2667H182.945V9.80444Z" fill="#CA0100"/>
<path d="M187.822 9.80444H185.359V12.2667H187.822V9.80444Z" fill="#CA0100"/>
<path d="M154.785 3.67041C138.802 3.67041 125.014 14.7283 121.432 30.1736L119.104 26.3235L117 27.5322L121.298 34.6952L128.461 30.3974L127.207 28.2933L123.894 30.2631C127.342 16.1609 140.056 6.08793 154.785 6.08793C158.008 6.08793 161.187 6.58039 164.231 7.52053L164.947 5.19255C161.635 4.16287 158.232 3.67041 154.785 3.67041Z" fill="#CA0100"/>
<path d="M192.125 27.0849L184.962 22.7871L180.664 29.9501L182.768 31.2037L184.917 27.6221C186.036 30.935 186.618 34.3822 186.618 37.919C186.618 45.2163 184.111 52.3346 179.5 57.9307L181.38 59.4528C186.305 53.3643 189.036 45.7088 189.036 37.8742C189.036 34.1136 188.454 30.4874 187.245 26.9954L190.827 29.1443L192.125 27.0849Z" fill="#CA0100"/>
</svg>
