<svg width="79" height="79" viewBox="0 0 79 79" fill="none" xmlns="http://www.w3.org/2000/svg">
<circle cx="39.5" cy="39.5" r="39.5" fill="white"/>
<path d="M31.383 53.5321H26.3532C25.4639 53.5321 24.611 53.1788 23.9821 52.5499C23.3533 51.9211 23 51.0682 23 50.1789V38.4426C23 37.5533 23.3533 36.7004 23.9821 36.0716C24.611 35.4427 25.4639 35.0894 26.3532 35.0894H31.383M43.1192 31.7362V25.0298C43.1192 23.6958 42.5893 22.4165 41.646 21.4732C40.7028 20.5299 39.4234 20 38.0894 20L31.383 35.0894V53.5321H50.2951C51.1038 53.5412 51.8885 53.2578 52.5047 52.734C53.1209 52.2103 53.5271 51.4814 53.6483 50.6818L55.962 35.5924C56.035 35.1118 56.0026 34.6211 55.867 34.1543C55.7315 33.6875 55.4961 33.2557 55.1771 32.8889C54.8582 32.5221 54.4633 32.229 54.0198 32.03C53.5763 31.831 53.0949 31.7307 52.6088 31.7362H43.1192Z" stroke="#262626" stroke-width="3" stroke-linecap="round" stroke-linejoin="round"/>
</svg>
