<svg width="79" height="79" viewBox="0 0 79 79" fill="none" xmlns="http://www.w3.org/2000/svg">
<circle cx="39.5" cy="39.5" r="39.5" fill="white"/>
<path d="M31.434 38.6967C29.4797 38.6967 27.9188 38.036 26.7513 36.7147C25.5838 35.3934 25 33.5983 25 31.3296C25 29.0859 25.5838 27.3033 26.7513 25.982C27.9188 24.6607 29.4797 24 31.434 24C33.3883 24 34.9492 24.6607 36.1168 25.982C37.2843 27.3033 37.868 29.0859 37.868 31.3296C37.868 33.5983 37.2843 35.3934 36.1168 36.7147C34.9492 38.036 33.3883 38.6967 31.434 38.6967ZM46.5482 24.2244H50.4695L33.4898 50.7756H29.5685L46.5482 24.2244ZM31.434 35.4806C33.1345 35.4806 33.9848 34.097 33.9848 31.3296C33.9848 28.5873 33.1345 27.2161 31.434 27.2161C29.7335 27.2161 28.8832 28.5873 28.8832 31.3296C28.8832 34.097 29.7335 35.4806 31.434 35.4806ZM48.566 51C46.5863 51 45.0127 50.3393 43.8452 49.018C42.6777 47.6717 42.0939 45.8767 42.0939 43.633C42.0939 41.3892 42.6777 39.6066 43.8452 38.2853C45.0381 36.964 46.6117 36.3033 48.566 36.3033C50.5203 36.3033 52.0812 36.964 53.2487 38.2853C54.4162 39.6066 55 41.3892 55 43.633C55 45.9017 54.4162 47.6967 53.2487 49.018C52.0812 50.3393 50.5203 51 48.566 51ZM48.566 47.7839C50.2665 47.7839 51.1168 46.4003 51.1168 43.633C51.1168 40.8906 50.2665 39.5194 48.566 39.5194C46.8401 39.5194 45.9772 40.8906 45.9772 43.633C45.9772 46.4003 46.8401 47.7839 48.566 47.7839Z" fill="#262626"/>
</svg>
