<svg width="76" height="12" viewBox="0 0 76 12" fill="none" xmlns="http://www.w3.org/2000/svg">
<path d="M33.5864 3.44736L35.1539 2.29065H29.9062V9.21958H35.1539V8.06287H31.4056V6.29378H34.6087V5.13707H31.4056V3.44736H33.5864Z" fill="#21A038"/>
<path d="M25.9417 4.98965H24.1243V3.44736H27.0321L28.5996 2.29065H22.625V9.21958H25.7486C27.4978 9.21958 28.5087 8.42576 28.5087 7.04224C28.5087 5.71543 27.6 4.98965 25.9417 4.98965ZM25.6918 8.06287H24.1243V6.14636H25.6918C26.6459 6.14636 27.0889 6.46389 27.0889 7.11029C27.0889 7.75668 26.6118 8.06287 25.6918 8.06287Z" fill="#21A038"/>
<path d="M39.4057 2.29065H36.5547V9.21958H38.054V7.25771H39.417C41.2344 7.25771 42.3703 6.30512 42.3703 4.77418C42.3703 3.24324 41.2344 2.29065 39.4057 2.29065ZM39.3716 6.101H38.0427V3.44736H39.3716C40.3371 3.44736 40.8596 3.92366 40.8596 4.77418C40.8596 5.6247 40.3371 6.101 39.3716 6.101Z" fill="#21A038"/>
<path d="M20.0598 7.72269C19.6622 7.93815 19.2192 8.05156 18.7649 8.05156C17.4132 8.05156 16.4364 7.08763 16.4364 5.76081C16.4364 4.43399 17.4132 3.47007 18.7649 3.47007C19.2533 3.45873 19.7304 3.61749 20.1279 3.901L21.207 3.10718L21.1388 3.03914C20.5141 2.48346 19.6736 2.19995 18.7195 2.19995C17.6858 2.19995 16.7431 2.5515 16.0616 3.18656C15.38 3.8443 14.9939 4.76286 15.0166 5.71545C15.0052 6.67938 15.38 7.60928 16.0616 8.2897C16.7771 8.95878 17.7313 9.33301 18.7081 9.31033C19.7872 9.31033 20.7299 8.9361 21.366 8.25568L20.4005 7.54124L20.0598 7.72269Z" fill="#21A038"/>
<path d="M60.391 2.30199V9.23093H61.8903V6.39584H65.0821V9.23093H66.5814V2.30199H65.0821V5.14841H61.8903V2.30199H60.391ZM57.8126 9.23093H59.3915L56.461 2.30199H54.9389L51.9516 9.23093H53.4623L54.0643 7.83607H57.2447L57.8126 9.23093ZM54.5187 6.67935L55.6772 3.90097L56.7677 6.67935H54.5187ZM69.9435 6.42987H70.8749L73.1694 9.21958H75.1003L72.0335 5.63604L74.7141 2.29065H72.999L70.7727 5.26181H69.9435V2.29065H68.4442V9.21958H69.9435V6.42987ZM46.9993 5.00099V3.4587H50.918V2.30199H45.5V9.23093H48.6236C50.3728 9.23093 51.3837 8.4371 51.3837 7.05358C51.3837 5.72677 50.475 5.00099 48.8167 5.00099H46.9993ZM46.9993 8.07421V6.1577H48.5668C49.5209 6.1577 49.9639 6.47523 49.9639 7.12163C49.9639 7.76802 49.4982 8.08555 48.5668 8.08555H46.9993V8.07421Z" fill="#21A038"/>
<path d="M10.3286 2.24524C10.6012 2.59679 10.8284 2.98236 11.0215 3.39061L5.77387 7.25766L3.57031 5.87414V4.21846L5.76251 5.59063L10.3286 2.24524Z" fill="#21A038"/>
<path d="M1.32895 5.76018C1.32895 5.6808 1.32895 5.61276 1.34031 5.53337L0.0113585 5.46533C0.0113585 5.55605 0 5.65812 0 5.74884C0 7.33648 0.647436 8.77671 1.69242 9.82002L2.63518 8.87877C1.82872 8.08495 1.32895 6.98494 1.32895 5.76018Z" fill="url(#paint0_linear_1565_27715)"/>
<path d="M5.76166 1.33756C5.84117 1.33756 5.90932 1.33756 5.98883 1.3489L6.05698 0.0220825C5.96612 0.0220825 5.86389 0.0107422 5.77302 0.0107422C4.18283 0.0107422 2.7403 0.65714 1.69531 1.70045L2.63807 2.6417C3.43317 1.83653 4.5463 1.33756 5.76166 1.33756Z" fill="url(#paint1_linear_1565_27715)"/>
<path d="M5.75626 10.1832C5.67675 10.1832 5.6086 10.1832 5.52909 10.1718L5.46094 11.4986C5.55181 11.4986 5.65403 11.51 5.7449 11.51C7.33509 11.51 8.77763 10.8636 9.82261 9.82028L8.87985 8.87903C8.08476 9.69553 6.98298 10.1832 5.75626 10.1832Z" fill="url(#paint2_linear_1565_27715)"/>
<path d="M8.25669 2.1093L9.38118 1.28146C8.39299 0.487634 7.13219 0 5.75781 0V1.32682C6.68921 1.33816 7.55246 1.62167 8.25669 2.1093Z" fill="url(#paint3_linear_1565_27715)"/>
<path d="M11.5286 5.7611C11.5286 5.40955 11.4945 5.06934 11.4377 4.72913L10.1996 5.64769C10.1996 5.68171 10.1996 5.72707 10.1996 5.7611C10.1996 7.06523 9.6317 8.23328 8.73438 9.03845L9.6317 10.0251C10.7903 8.98175 11.5286 7.4508 11.5286 5.7611Z" fill="#21A038"/>
<path d="M5.75518 10.1836C4.44895 10.1836 3.27902 9.61659 2.47257 8.7207L1.48438 9.61659C2.54072 10.7846 4.06276 11.5104 5.75518 11.5104V10.1836Z" fill="url(#paint4_linear_1565_27715)"/>
<path d="M2.7942 2.48356L1.89687 1.49695C0.726945 2.5516 0 4.0712 0 5.76091H1.32895C1.32895 4.46811 1.89687 3.28872 2.7942 2.48356Z" fill="url(#paint5_linear_1565_27715)"/>
<defs>
<linearGradient id="paint0_linear_1565_27715" x1="1.55495" y1="9.65859" x2="0.198624" y2="5.74429" gradientUnits="userSpaceOnUse">
<stop offset="0.1444" stop-color="#F2E913"/>
<stop offset="0.3037" stop-color="#E7E518"/>
<stop offset="0.5823" stop-color="#CADB26"/>
<stop offset="0.891" stop-color="#A3CD39"/>
</linearGradient>
<linearGradient id="paint1_linear_1565_27715" x1="2.07413" y1="1.54662" x2="5.52061" y2="0.235331" gradientUnits="userSpaceOnUse">
<stop offset="0.0592" stop-color="#0FA8E0"/>
<stop offset="0.5385" stop-color="#0099F9"/>
<stop offset="0.9234" stop-color="#0291EB"/>
</linearGradient>
<linearGradient id="paint2_linear_1565_27715" x1="5.3829" y1="10.3782" x2="9.49059" y2="9.45128" gradientUnits="userSpaceOnUse">
<stop offset="0.1226" stop-color="#A3CD39"/>
<stop offset="0.2846" stop-color="#86C339"/>
<stop offset="0.8693" stop-color="#21A038"/>
</linearGradient>
<linearGradient id="paint3_linear_1565_27715" x1="5.48476" y1="0.848923" x2="8.90081" y2="1.90124" gradientUnits="userSpaceOnUse">
<stop offset="0.0566" stop-color="#0291EB"/>
<stop offset="0.79" stop-color="#0C8ACB"/>
</linearGradient>
<linearGradient id="paint4_linear_1565_27715" x1="1.82228" y1="9.8321" x2="5.49044" y2="11.2004" gradientUnits="userSpaceOnUse">
<stop offset="0.1324" stop-color="#F2E913"/>
<stop offset="0.2977" stop-color="#EBE716"/>
<stop offset="0.5306" stop-color="#D9E01F"/>
<stop offset="0.8023" stop-color="#BBD62D"/>
<stop offset="0.9829" stop-color="#A3CD39"/>
</linearGradient>
<linearGradient id="paint5_linear_1565_27715" x1="1.0112" y1="5.92117" x2="2.47788" y2="2.11193" gradientUnits="userSpaceOnUse">
<stop offset="0.0698" stop-color="#A3CD39"/>
<stop offset="0.2599" stop-color="#81C55F"/>
<stop offset="0.9216" stop-color="#0FA8E0"/>
</linearGradient>
</defs>
</svg>
